<?xml version="1.0" encoding="UTF-8"?>
<svg version="1.1" xmlns="http://www.w3.org/2000/svg" width="225" height="225">
<path d="M0 0 C2.64944726 1.94216336 4.62438195 4.00417752 6.83203125 6.421875 C10.56489796 9.99095962 13.29269818 10.37043163 18.24633789 10.32739258 C19.84347697 10.26544511 21.44035282 10.19628537 23.03686523 10.11987305 C29.4430261 9.83472443 34.05853649 10.81178591 39.70703125 13.984375 C40.77244141 14.55671875 40.77244141 14.55671875 41.859375 15.140625 C43.49778681 16.04905135 45.10677474 17.01030582 46.70703125 17.984375 C46.70703125 18.644375 46.70703125 19.304375 46.70703125 19.984375 C47.58488281 20.31695312 47.58488281 20.31695312 48.48046875 20.65625 C51.39137339 22.39257908 52.55174169 24.36395219 54.33203125 27.234375 C55.21761719 28.63429688 55.21761719 28.63429688 56.12109375 30.0625 C60.55965642 38.23995044 60.99683864 46.97557169 59.0546875 56.0234375 C54.97259473 68.46243264 45.75813136 76.92278431 34.70703125 83.484375 C31.70703125 84.984375 31.70703125 84.984375 29.70703125 84.984375 C27.85738701 89.70059936 27.35817187 93.96845861 27.39453125 98.984375 C27.39654541 99.75257568 27.39855957 100.52077637 27.40063477 101.31225586 C27.53868627 109.60609262 28.70860128 117.73689081 29.953125 125.92578125 C30.45706184 129.26895638 30.95431242 132.61158497 31.38671875 135.96484375 C31.48065918 136.67406982 31.57459961 137.3832959 31.67138672 138.11401367 C31.70703125 139.984375 31.70703125 139.984375 30.39453125 142.734375 C14.49590009 156.0448569 -9.94291952 155.34462776 -29.57250977 155.30004883 C-32.45953525 155.29689785 -35.34552264 155.32041606 -38.23242188 155.34570312 C-78.27460861 155.48282588 -78.27460861 155.48282588 -93.04296875 144.484375 C-95.62357391 141.61703593 -95.94202999 140.76448683 -96.29296875 136.984375 C-95.99804913 133.74778267 -95.4610663 130.56243308 -94.91796875 127.359375 C-94.63076441 125.55110536 -94.34558816 123.74251236 -94.0625 121.93359375 C-93.92666504 121.07169434 -93.79083008 120.20979492 -93.65087891 119.32177734 C-92.97080396 114.88041479 -92.51214347 110.47101054 -92.29296875 105.984375 C-92.19628906 104.11265625 -92.19628906 104.11265625 -92.09765625 102.203125 C-92.05527649 100.85947553 -92.01619797 99.51571776 -91.98046875 98.171875 C-91.92439453 96.33689453 -91.92439453 96.33689453 -91.8671875 94.46484375 C-92.39396692 90.15878448 -93.44323642 88.25025872 -96.29296875 84.984375 C-98.73664267 83.29254624 -101.32147145 81.99103156 -103.98046875 80.671875 C-115.13187015 74.74065338 -122.99314588 67.41607311 -126.8984375 55.0703125 C-128.85258604 44.73847766 -127.22160094 35.10346352 -121.5625 26.2890625 C-116.09120178 18.97215669 -110.13852358 13.79764671 -101.16796875 11.609375 C-96.1567744 10.31017647 -94.13083961 7.98626591 -91.01171875 3.984375 C-85.84535313 -2.0273959 -78.00291768 -5.10857218 -70.29296875 -6.015625 C-64.82394363 -6.19204517 -59.70619354 -5.78894283 -54.29296875 -5.015625 C-54.29296875 -4.355625 -54.29296875 -3.695625 -54.29296875 -3.015625 C-50.28406613 -1.81295421 -48.02842364 -1.8944624 -44.41796875 -3.828125 C-43.73863281 -4.20066406 -43.05929688 -4.57320312 -42.359375 -4.95703125 C-28.91544668 -11.84418545 -12.15064968 -7.45282313 0 0 Z " fill="#0A0708" transform="translate(146.29296875,33.015625)"/>
<path d="M0 0 C4.40430473 3.36986428 7.60286364 7.00788434 10.65234375 11.625 C11.15894531 12.181875 11.66554687 12.73875 12.1875 13.3125 C13.5075 13.3125 14.8275 13.3125 16.1875 13.3125 C16.8475 11.9925 17.5075 10.6725 18.1875 9.3125 C28.18488631 8.62826824 35.7969859 10.17586792 43.5625 16.75 C49.7617751 22.62496695 54.22734296 28.37654513 54.625 37.125 C54.28962429 45.97891878 50.62163227 52.82091232 44.6171875 59.19921875 C39.70926863 63.46800349 33.97851951 66.41699025 28.1875 69.3125 C29.79735097 65.34906574 32.57487199 62.64484552 35.5 59.625 C43.15442134 51.721342 43.15442134 51.721342 46.30078125 41.55859375 C46.24470703 40.44677734 46.24470703 40.44677734 46.1875 39.3125 C44.2075 39.3125 42.2275 39.3125 40.1875 39.3125 C39.81044922 40.64087891 39.81044922 40.64087891 39.42578125 41.99609375 C38.14632709 45.42277066 36.69735626 47.57307495 34.375 50.375 C33.30185547 51.67244141 33.30185547 51.67244141 32.20703125 52.99609375 C29.97650605 55.55451046 27.58691689 57.91308311 25.1875 60.3125 C20.6350007 65.41135691 20.6350007 65.41135691 18.8125 71.8125 C18.93625 72.6375 19.06 73.4625 19.1875 74.3125 C20.1775 74.6425 21.1675 74.9725 22.1875 75.3125 C21.8575 77.9525 21.5275 80.5925 21.1875 83.3125 C15.72980189 83.42388159 10.57240641 83.22907981 5.1875 82.3125 C5.73380848 71.38633036 10.13805699 62.44124255 16.05078125 53.37109375 C17.42919235 51.26672631 17.42919235 51.26672631 17.1875 48.3125 C15.40608253 47.44891377 15.40608253 47.44891377 13.1875 47.3125 C9.55535811 50.30676573 7.37311895 54.0248425 5.1875 58.125 C4.84009766 58.77283447 4.49269531 59.42066895 4.13476562 60.08813477 C0.64633817 66.88745948 -1.20601901 73.86138752 -2.8125 81.3125 C-9.4375 81.4375 -9.4375 81.4375 -12.8125 80.3125 C-13.12835517 69.27511667 -12.1263461 59.66331546 -8.41015625 49.26171875 C-7.68277683 46.88941593 -7.57396474 44.77736433 -7.8125 42.3125 C-9.7925 42.3125 -11.7725 42.3125 -13.8125 42.3125 C-17.85954281 55.02767707 -20.1909692 67.01174095 -20.8125 80.3125 C-26.4225 80.3125 -32.0325 80.3125 -37.8125 80.3125 C-37.895 77.981875 -37.9775 75.65125 -38.0625 73.25 C-38.50934808 64.66464194 -39.24621071 51.48175784 -45.8125 45.3125 C-48.43875139 44.97824265 -48.43875139 44.97824265 -50.8125 45.3125 C-50.46316406 46.53066406 -50.11382812 47.74882813 -49.75390625 49.00390625 C-49.29403393 50.62753709 -48.83441178 52.25123879 -48.375 53.875 C-48.14490234 54.67486328 -47.91480469 55.47472656 -47.67773438 56.29882812 C-45.39349057 64.4095489 -44.69732957 71.90505843 -44.8125 80.3125 C-49.4325 80.6425 -54.0525 80.9725 -58.8125 81.3125 C-59.18375 79.724375 -59.555 78.13625 -59.9375 76.5 C-62.49870014 67.24663175 -67.35291969 59.81133706 -72.9375 52.125 C-79.55114774 43.0160977 -82.94662802 37.25139612 -81.3125 25.8125 C-81.1475 24.9875 -80.9825 24.1625 -80.8125 23.3125 C-83.86163228 22.30138907 -83.86163228 22.30138907 -86.8125 23.3125 C-89.28137541 29.41971812 -89.62251623 35.84410111 -87.11035156 42.04589844 C-83.83896334 48.96224855 -79.31454615 55.10716618 -74.9453125 61.359375 C-65.8125 74.72542248 -65.8125 74.72542248 -65.8125 82.3125 C-67.56034829 82.67713732 -69.31090502 83.0288078 -71.0625 83.375 C-72.03703125 83.57222656 -73.0115625 83.76945312 -74.015625 83.97265625 C-76.680619 84.29647535 -78.30121723 84.16753199 -80.8125 83.3125 C-82.95278777 75.88444245 -82.95278777 75.88444245 -82.203125 72.828125 C-81.68258727 69.47586202 -82.52939749 68.46474611 -84.5 65.75 C-88.08458078 60.91515213 -92.18439095 56.72442539 -96.54760742 52.59936523 C-99.07914768 50.1827259 -101.07498201 47.91292845 -103.00390625 44.9765625 C-103.60074219 44.09742188 -104.19757813 43.21828125 -104.8125 42.3125 C-107.4829053 41.81008678 -107.4829053 41.81008678 -109.8125 42.3125 C-108.52661244 49.02769059 -105.16631836 53.15518727 -100.8125 58.3125 C-100.03519531 59.25609375 -100.03519531 59.25609375 -99.2421875 60.21875 C-98.10892248 61.59161962 -96.96239705 62.95353076 -95.8125 64.3125 C-103.68281546 62.34492113 -109.01082282 58.07131388 -113.25 51.25 C-115.17577348 47.92843429 -116.24242833 45.10893475 -116.8125 41.3125 C-116.91433594 40.64089844 -117.01617187 39.96929687 -117.12109375 39.27734375 C-117.62229858 31.39475875 -114.22154841 24.20201832 -109.06640625 18.3203125 C-105.47064683 15.1009466 -100.79868032 11.3125 -95.8125 11.3125 C-95.4825 11.9725 -95.1525 12.6325 -94.8125 13.3125 C-92.38982914 13.36417527 -92.38982914 13.36417527 -89.8125 12.3125 C-89.02458657 10.63818396 -88.24896487 8.95370087 -87.60546875 7.21875 C-85.23328204 1.51615338 -81.13637022 -1.41075299 -75.77734375 -3.92578125 C-68.48883738 -6.75134535 -60.00618039 -6.79828071 -52.8125 -3.6875 C-53.3384375 -2.6046875 -53.3384375 -2.6046875 -53.875 -1.5 C-54.91659017 1.6247705 -54.70346572 3.19411996 -53.8125 6.3125 C-52.1625 6.3125 -50.5125 6.3125 -48.8125 6.3125 C-48.44125 5.4771875 -48.44125 5.4771875 -48.0625 4.625 C-44.78152041 -1.44481224 -40.61689556 -5.12400058 -34 -7.27734375 C-21.61463094 -9.59960045 -10.30060314 -7.03079315 0 0 Z " fill="#F6A922" transform="translate(143.8125,41.6875)"/>
<path d="M0 0 C1.29321167 -0.00592163 1.29321167 -0.00592163 2.61254883 -0.01196289 C19.36545832 -0.0474989 35.54346328 1.62335449 52.0625 4.3125 C53.0525 12.2325 53.0525 12.2325 54.0625 20.3125 C36.0128136 28.51690291 17.7430711 29.60350362 -1.875 29.625 C-2.60359222 29.62840393 -3.33218445 29.63180786 -4.08285522 29.63531494 C-21.43143567 29.68171654 -40.67713875 29.03270643 -55.9375 20.3125 C-55.2775 15.0325 -54.6175 9.7525 -53.9375 4.3125 C-50.73004081 3.82679904 -47.52170934 3.34888737 -44.3125 2.875 C-43.42820312 2.74029297 -42.54390625 2.60558594 -41.6328125 2.46679688 C-27.80326791 0.44175642 -13.95307516 0.04672832 0 0 Z " fill="#F5A923" transform="translate(114.9375,150.6875)"/>
<path d="M0 0 C0.66 0 1.32 0 2 0 C2 0.66 2 1.32 2 2 C3.65 2 5.3 2 7 2 C9.84788471 7.69576942 8.18784721 16.56314868 6.8125 22.58984375 C2.77923298 34.55390985 -8.42930028 42.14518484 -19 48 C-19.66 48 -20.32 48 -21 48 C-22.84964424 52.71622436 -23.34885938 56.98408361 -23.3125 62 C-23.31048584 62.76820068 -23.30847168 63.53640137 -23.30639648 64.32788086 C-23.16834498 72.62171762 -21.99842997 80.75251581 -20.75390625 88.94140625 C-20.50083897 90.62734015 -20.24949954 92.31353443 -20 94 C-19.87455811 94.84030762 -19.74911621 95.68061523 -19.61987305 96.54638672 C-19.51328369 97.34447754 -19.40669434 98.14256836 -19.296875 98.96484375 C-19.19858398 99.67116943 -19.10029297 100.37749512 -18.99902344 101.10522461 C-19 103 -19 103 -20.6875 106 C-22.92277326 107.93320931 -24.10259701 108.68956397 -27 109 C-27.66 107.68 -28.32 106.36 -29 105 C-31.64 105 -34.28 105 -37 105 C-34.01353231 103.00902154 -31.40312738 102.05875074 -28 101 C-28.2165625 100.14728516 -28.2165625 100.14728516 -28.4375 99.27734375 C-29.61545505 94.37737795 -30.21427527 90.0354688 -30 85 C-32.31 85 -34.62 85 -37 85 C-35 84 -33 83 -31 82 C-31 81.34 -31 80.68 -31 80 C-32.98 79.34 -34.96 78.68 -37 78 C-37 77.34 -37 76.68 -37 76 C-37.81082031 75.93941406 -38.62164062 75.87882812 -39.45703125 75.81640625 C-41.11798828 75.69072266 -41.11798828 75.69072266 -42.8125 75.5625 C-44.43091797 75.44068359 -44.43091797 75.44068359 -46.08203125 75.31640625 C-48.10553557 75.15299264 -50.12948506 74.98481066 -52.14575195 74.74829102 C-61.28895108 73.7366218 -70.45272649 73.81392685 -79.63989258 73.81469727 C-82.53156543 73.81252326 -85.42284806 73.79435116 -88.31445312 73.77539062 C-100.03061837 73.74057401 -111.38784102 74.49498293 -123 76 C-126.66469662 76.36573667 -130.33048795 76.6854704 -134 77 C-134 72.71 -134 68.42 -134 64 C-101.63404684 58.50759583 -64.14159512 55.53794288 -32 64 C-31.67 64.33 -31.34 64.66 -31 65 C-31 64.34 -31 63.68 -31 63 C-31.66 62.67 -32.32 62.34 -33 62 C-31.68 62 -30.36 62 -29 62 C-29 61.34 -29 60.68 -29 60 C-29.66 59.67 -30.32 59.34 -31 59 C-30.67 58.67 -30.34 58.34 -30 58 C-33.65034227 56.17482887 -38.00359115 56.58830887 -42.03125 56.37890625 C-45 56 -45 56 -47 54 C-42.05 54.33 -37.1 54.66 -32 55 C-31.67 52.36 -31.34 49.72 -31 47 C-32.98 46.505 -32.98 46.505 -35 46 C-35.54386333 40.55324929 -34.16263763 38.17299211 -30.8125 33.9375 C-30.03519531 32.93589844 -29.25789063 31.93429688 -28.45703125 30.90234375 C-26.09492855 28.1121334 -23.59175953 25.57487511 -21 23 C-19.90466779 21.67224966 -18.83775353 20.32008049 -17.8125 18.9375 C-17.07966797 17.96103516 -17.07966797 17.96103516 -16.33203125 16.96484375 C-14.94470376 15.02135616 -14.94470376 15.02135616 -13.9453125 12.8125 C-13 11 -13 11 -11.0625 10.0625 C-9 10 -9 10 -7.1875 11.125 C-6 13 -6 13 -6.27734375 15.36328125 C-8.84341266 24.72596511 -17.48421469 32.14799089 -24 39 C-13.22305318 33.71085329 -5.02377044 28.52429534 -0.6796875 16.91015625 C0.6224719 11.33481861 0.29485073 5.68406692 0 0 Z M-35 80 C-34.34 80.33 -33.68 80.66 -33 81 C-33.33 81.66 -33.66 82.32 -34 83 C-34.66 82.67 -35.32 82.34 -36 82 C-35.67 81.34 -35.34 80.68 -35 80 Z " fill="#121010" transform="translate(197,70)"/>
<path d="M0 0 C2.64944726 1.94216336 4.62438195 4.00417752 6.83203125 6.421875 C10.56489796 9.99095962 13.29269818 10.37043163 18.24633789 10.32739258 C19.84347697 10.26544511 21.44035282 10.19628537 23.03686523 10.11987305 C29.4430261 9.83472443 34.05853649 10.81178591 39.70703125 13.984375 C40.77244141 14.55671875 40.77244141 14.55671875 41.859375 15.140625 C43.49778681 16.04905135 45.10677474 17.01030582 46.70703125 17.984375 C46.70703125 18.644375 46.70703125 19.304375 46.70703125 19.984375 C47.58488281 20.31695312 47.58488281 20.31695312 48.48046875 20.65625 C51.39137339 22.39257908 52.55174169 24.36395219 54.33203125 27.234375 C55.21761719 28.63429688 55.21761719 28.63429688 56.12109375 30.0625 C59.06064913 35.47823257 59.98360668 39.95716354 59.95703125 46.109375 C59.96476562 47.90761719 59.96476562 47.90761719 59.97265625 49.7421875 C59.70703125 52.984375 59.70703125 52.984375 57.70703125 56.984375 C57.70703125 51.704375 57.70703125 46.424375 57.70703125 40.984375 C56.05703125 40.324375 54.40703125 39.664375 52.70703125 38.984375 C52.70703125 38.324375 52.70703125 37.664375 52.70703125 36.984375 C52.04703125 36.984375 51.38703125 36.984375 50.70703125 36.984375 C50.37703125 37.644375 50.04703125 38.304375 49.70703125 38.984375 C49.19140625 37.80875 48.67578125 36.633125 48.14453125 35.421875 C44.86270203 28.91579251 39.89040565 23.83700642 33.23828125 20.76171875 C27.57651896 19.02299854 21.58247806 18.56579942 15.70703125 17.984375 C15.04703125 19.634375 14.38703125 21.284375 13.70703125 22.984375 C10.6722187 22.66492105 9.13898955 22.45578616 7.0390625 20.1640625 C6.53761719 19.40351562 6.03617188 18.64296875 5.51953125 17.859375 C-0.91120272 9.14184986 -9.72072486 4.13988104 -20.29296875 1.984375 C-29.62791073 1.09146751 -37.10931982 1.56787911 -45.04296875 6.796875 C-47.46466539 8.97853095 -47.46466539 8.97853095 -49.29296875 12.171875 C-51.29296875 14.984375 -51.29296875 14.984375 -53.91796875 15.984375 C-54.70171875 15.984375 -55.48546875 15.984375 -56.29296875 15.984375 C-57.28296875 14.994375 -57.28296875 14.994375 -58.29296875 13.984375 C-57.96879012 10.17527605 -57.43715433 8.20065337 -55.29296875 4.984375 C-65.81727559 2.7088492 -74.18500923 3.69547372 -83.54296875 8.734375 C-87.00736655 11.56888229 -88.26374223 13.9958953 -90.29296875 17.984375 C-91.2877392 19.65416826 -92.28557129 21.32216919 -93.29296875 22.984375 C-94.94296875 22.654375 -96.59296875 22.324375 -98.29296875 21.984375 C-98.29296875 21.324375 -98.29296875 20.664375 -98.29296875 19.984375 C-107.53985379 24.32810747 -112.32164412 28.5369465 -117.16796875 37.421875 C-119.81151352 45.79310009 -118.21440098 53.17713776 -114.33203125 60.89453125 C-110.94706632 66.35608815 -105.86001178 69.0333017 -100.29296875 71.984375 C-101.61296875 73.964375 -102.93296875 75.944375 -104.29296875 77.984375 C-101.53032586 78.58170319 -99.13264106 78.984375 -96.29296875 78.984375 C-95.96296875 79.974375 -95.63296875 80.964375 -95.29296875 81.984375 C-95.95296875 81.984375 -96.61296875 81.984375 -97.29296875 81.984375 C-97.62296875 82.644375 -97.95296875 83.304375 -98.29296875 83.984375 C-111.38099404 77.15179281 -122.21240802 69.88421213 -126.8984375 55.0703125 C-128.85258604 44.73847766 -127.22160094 35.10346352 -121.5625 26.2890625 C-116.09120178 18.97215669 -110.13852358 13.79764671 -101.16796875 11.609375 C-96.1567744 10.31017647 -94.13083961 7.98626591 -91.01171875 3.984375 C-85.84535313 -2.0273959 -78.00291768 -5.10857218 -70.29296875 -6.015625 C-64.82394363 -6.19204517 -59.70619354 -5.78894283 -54.29296875 -5.015625 C-54.29296875 -4.355625 -54.29296875 -3.695625 -54.29296875 -3.015625 C-50.28406613 -1.81295421 -48.02842364 -1.8944624 -44.41796875 -3.828125 C-43.73863281 -4.20066406 -43.05929688 -4.57320312 -42.359375 -4.95703125 C-28.91544668 -11.84418545 -12.15064968 -7.45282313 0 0 Z " fill="#100E0F" transform="translate(146.29296875,33.015625)"/>
<path d="M0 0 C0.66 1.32 1.32 2.64 2 4 C2.66 4 3.32 4 4 4 C4 4.66 4 5.32 4 6 C3.34 6 2.68 6 2 6 C2 7.32 2 8.64 2 10 C1.67 10.33 1.34 10.66 1 11 C2.32 11 3.64 11 5 11 C6.76343579 14.52687157 6.65999296 18.79834265 6.98632812 22.70703125 C8.11989643 33.40069328 14.86987422 41.46494554 20.8671875 50.046875 C30 63.41292248 30 63.41292248 30 71 C28.25215171 71.36463732 26.50159498 71.7163078 24.75 72.0625 C23.77546875 72.25972656 22.8009375 72.45695312 21.796875 72.66015625 C19.131881 72.98397535 17.51128277 72.85503199 15 72 C12.85971223 64.57194245 12.85971223 64.57194245 13.609375 61.515625 C14.12991273 58.16336202 13.28310251 57.15224611 11.3125 54.4375 C7.72791922 49.60265213 3.62810905 45.41192539 -0.73510742 41.28686523 C-3.26664768 38.8702259 -5.26248201 36.60042845 -7.19140625 33.6640625 C-7.78824219 32.78492188 -8.38507812 31.90578125 -9 31 C-11.6704053 30.49758678 -11.6704053 30.49758678 -14 31 C-12.71411244 37.71519059 -9.35381836 41.84268727 -5 47 C-4.48179688 47.6290625 -3.96359375 48.258125 -3.4296875 48.90625 C-2.29642248 50.27911962 -1.14989705 51.64103076 0 53 C-7.87031546 51.03242113 -13.19832282 46.75881388 -17.4375 39.9375 C-19.36327348 36.61593429 -20.42992833 33.79643475 -21 30 C-21.15275391 28.99259766 -21.15275391 28.99259766 -21.30859375 27.96484375 C-21.80979858 20.08225875 -18.40904841 12.88951832 -13.25390625 7.0078125 C-9.65814683 3.7884466 -4.98618032 0 0 0 Z " fill="#F4AA24" transform="translate(48,53)"/>
<path d="M0 0 C0 4.29 0 8.58 0 13 C-1.58296875 12.7834375 -3.1659375 12.566875 -4.796875 12.34375 C-20.45815617 10.37953275 -35.90939881 9.69017596 -51.6875 9.6875 C-52.61163696 9.68427734 -53.53577393 9.68105469 -54.48791504 9.67773438 C-65.48292954 9.65431893 -76.25404309 10.12080371 -87.16479492 11.51245117 C-92.10145799 12.14002238 -97.04236428 12.5750598 -102 13 C-102 8.71 -102 4.42 -102 0 C-68.62828559 -5.66307881 -33.30304062 -6.95884431 0 0 Z " fill="#F1A724" transform="translate(165,134)"/>
<path d="M0 0 C4.29 0.33 8.58 0.66 13 1 C13.99 8.92 13.99 8.92 15 17 C-3.0496864 25.20440291 -21.3194289 26.29100362 -40.9375 26.3125 C-41.66609222 26.31590393 -42.39468445 26.31930786 -43.14535522 26.32281494 C-56.26900734 26.35791628 -69.17871999 25.31321 -82 22.375 C-83.155 22.11460937 -84.31 21.85421875 -85.5 21.5859375 C-86.325 21.39257812 -87.15 21.19921875 -88 21 C-84.74933774 20.03814143 -81.77997612 19.8534403 -78.39624023 19.81054688 C-77.27084335 19.79382935 -76.14544647 19.77711182 -74.98594666 19.7598877 C-73.16565697 19.73952454 -73.16565697 19.73952454 -71.30859375 19.71875 C-70.05297134 19.70034058 -68.79734894 19.68193115 -67.50367737 19.66296387 C-63.48166513 19.60420214 -59.4596119 19.5513236 -55.4375 19.5 C-51.44038422 19.44865163 -47.44332649 19.39532833 -43.44630432 19.33703613 C-40.9598171 19.30077368 -38.47327142 19.26825788 -35.98667908 19.2401123 C-21.50007092 19.29128327 -21.50007092 19.29128327 -7.97265625 14.83984375 C-6 14 -6 14 -2 14 C-2 12.68 -2 11.36 -2 10 C0.475 9.505 0.475 9.505 3 9 C3.33 7.02 3.66 5.04 4 3 C2.02 3 0.04 3 -2 3 C-1.34 2.01 -0.68 1.02 0 0 Z " fill="#E2902B" transform="translate(154,154)"/>
<path d="M0 0 C0.90167908 -0.00678772 1.80335815 -0.01357544 2.73236084 -0.02056885 C5.63410931 -0.03746376 8.5357056 -0.04376007 11.4375 -0.046875 C12.42061157 -0.04921143 13.40372314 -0.05154785 14.41662598 -0.05395508 C29.30883018 -0.06734571 43.74107058 0.59869447 58.4375 3.203125 C58.4375 3.863125 58.4375 4.523125 58.4375 5.203125 C59.035625 5.30625 59.63375 5.409375 60.25 5.515625 C62.71993264 6.29188955 63.76001235 7.27401421 65.4375 9.203125 C59.80734163 12.95656391 53.00135253 11.31053779 46.52384949 10.47920227 C35.86444351 9.13434415 25.35600215 8.93062214 14.625 9.015625 C12.86173642 9.02181476 11.09847134 9.02758941 9.33520508 9.03295898 C-0.74318843 9.0800322 -10.80583121 9.25121547 -20.86450195 9.93481445 C-24.12384274 10.15119478 -26.42588901 10.248662 -29.5625 9.203125 C-31.12368428 9.13571635 -32.6875252 9.11798044 -34.25 9.140625 C-35.05824219 9.14964844 -35.86648437 9.15867188 -36.69921875 9.16796875 C-37.31410156 9.17957031 -37.92898437 9.19117188 -38.5625 9.203125 C-38.5625 8.543125 -38.5625 7.883125 -38.5625 7.203125 C-31.5655827 5.45389567 -24.75520839 4.66560033 -17.5625 4.203125 C-17.5625 3.213125 -17.5625 2.223125 -17.5625 1.203125 C-11.67393784 0.35972876 -5.94493275 0.0307455 0 0 Z M60.4375 7.203125 C60.1075 8.193125 59.7775 9.183125 59.4375 10.203125 C60.0975 10.203125 60.7575 10.203125 61.4375 10.203125 C61.7675 9.213125 62.0975 8.223125 62.4375 7.203125 C61.7775 7.203125 61.1175 7.203125 60.4375 7.203125 Z " fill="#050405" transform="translate(101.5625,142.796875)"/>
<path d="M0 0 C8.14638072 0.49215019 15.99530193 1.39906039 24 3 C24 7.29 24 11.58 24 16 C22.40542969 15.79503906 20.81085938 15.59007812 19.16796875 15.37890625 C-3.18958997 12.70102746 -25.50306835 12.28509029 -48 12 C-48 11.67 -48 11.34 -48 11 C-43.64667264 10.15976812 -39.55557481 9.89229005 -35.125 9.9375 C-33.97257812 9.94652344 -32.82015625 9.95554688 -31.6328125 9.96484375 C-30.76398438 9.97644531 -29.89515625 9.98804688 -29 10 C-29 9.01 -29 8.02 -29 7 C-26.36 7 -23.72 7 -21 7 C-21 6.34 -21 5.68 -21 5 C-19.35451172 4.80083984 -19.35451172 4.80083984 -17.67578125 4.59765625 C-16.22134199 4.41937015 -14.76691558 4.2409792 -13.3125 4.0625 C-12.59126953 3.97548828 -11.87003906 3.88847656 -11.12695312 3.79882812 C-7.37989416 3.33686195 -3.69207089 2.80832321 0 2 C0 1.34 0 0.68 0 0 Z " fill="#E38F2B" transform="translate(141,131)"/>
<path d="M0 0 C1.25 2.5625 1.25 2.5625 2 5 C-13.10848825 12.15474083 -28.64299583 12.42239556 -45 12.1875 C-46.85415563 12.17240577 -48.70832334 12.15872586 -50.5625 12.14648438 C-55.04197278 12.11390035 -59.52084729 12.0623882 -64 12 C-64 9.66666667 -64 7.33333333 -64 5 C-62.95380493 4.97812622 -62.95380493 4.97812622 -61.88647461 4.95581055 C-43.1353739 4.52166496 -24.53478627 3.54573598 -6.21118164 -0.71508789 C-3.78831681 -1.02727551 -2.26737335 -0.90231258 0 0 Z " fill="#020309" transform="translate(168,175)"/>
<path d="M0 0 C0.5775 0.680625 1.155 1.36125 1.75 2.0625 C2.86375 3.0215625 2.86375 3.0215625 4 4 C6.21858253 3.86358623 6.21858253 3.86358623 8 3 C8.33 3.99 8.66 4.98 9 6 C20.47852955 14.10950659 39.45932233 13.74895913 53 15 C54.125 18.75 54.125 18.75 53 21 C68.84 21.495 68.84 21.495 85 22 C85 22.33 85 22.66 85 23 C78.97585635 23.07551964 72.9520025 23.1292311 66.92749023 23.16479492 C64.88837878 23.17965795 62.84929792 23.19995419 60.81030273 23.22631836 C17.38665309 23.77272994 17.38665309 23.77272994 2.25 12.5 C-0.17866254 9.80148606 -0.91012393 8.59504278 -1 5 C-0.5625 2.1875 -0.5625 2.1875 0 0 Z " fill="#131212" transform="translate(51,165)"/>
<path d="M0 0 C2.97542539 2.79391796 5.17154459 5.59302811 7.3125 9.0625 C9.14831947 12.02349914 10.98337716 14.97480974 12.90234375 17.8828125 C21 30.17481501 21 30.17481501 21 37 C19.25215171 37.36463732 17.50159498 37.7163078 15.75 38.0625 C14.28820312 38.35833984 14.28820312 38.35833984 12.796875 38.66015625 C10.131881 38.98397535 8.51128277 38.85503199 6 38 C3.85971223 30.57194245 3.85971223 30.57194245 4.609375 27.515625 C5.12991273 24.16336202 4.28310251 23.15224611 2.3125 20.4375 C-2.46251255 14.00287943 -8.22302982 8.52084835 -14 3 C-13.01 2.67 -12.02 2.34 -11 2 C-11 2.66 -11 3.32 -11 4 C-10.34 4 -9.68 4 -9 4 C-9 4.66 -9 5.32 -9 6 C-8.071875 6.2165625 -8.071875 6.2165625 -7.125 6.4375 C-5 7 -5 7 -3 8 C-2.67 6.35 -2.34 4.7 -2 3 C-2.66 2.67 -3.32 2.34 -4 2 C-2.68 2 -1.36 2 0 2 C0 1.34 0 0.68 0 0 Z " fill="#EDA827" transform="translate(57,87)"/>
<path d="M0 0 C0.66 0.33 1.32 0.66 2 1 C1.06311207 4.0661787 0.3850774 5.70294029 -2.1875 7.6875 C-6.31865488 11.08422735 -9.54927545 15.23980304 -12 20 C-12.2671428 23.21450076 -12.2671428 23.21450076 -12 26 C-11.01 26.33 -10.02 26.66 -9 27 C-9.33 29.64 -9.66 32.28 -10 35 C-15.45769811 35.11138159 -20.61509359 34.91657981 -26 34 C-25.60989312 26.19786249 -23.36183577 20.02294475 -20 13 C-19.67902344 12.319375 -19.35804688 11.63875 -19.02734375 10.9375 C-18.125 9.3125 -18.125 9.3125 -16 7 C-12.4375 6.1875 -12.4375 6.1875 -9 6 C-8.01 5.67 -7.02 5.34 -6 5 C-5.34 5.33 -4.68 5.66 -4 6 C-3.71125 5.195625 -3.4225 4.39125 -3.125 3.5625 C-2 1 -2 1 0 0 Z " fill="#E5912C" transform="translate(175,90)"/>
<path d="M0 0 C0.33 0 0.66 0 1 0 C1 1.65 1 3.3 1 5 C1.66 5 2.32 5 3 5 C3 5.66 3 6.32 3 7 C2.01 7 1.02 7 0 7 C2.46278801 9.46278801 4.70676982 9.99771255 8 11 C7.51179185 16.49234171 5.94233636 21.12113083 3.98828125 26.265625 C2.70984393 29.80280335 1.82997178 33.33429128 1 37 C-5.625 37.125 -5.625 37.125 -9 36 C-9.31057612 25.1470901 -8.22326401 15.36049145 -5 5 C-4.01 5.33 -3.02 5.66 -2 6 C-1.34 4.02 -0.68 2.04 0 0 Z " fill="#F6AB24" transform="translate(140,86)"/>
<path d="M0 0 C18.36769078 -0.76709613 18.36769078 -0.76709613 27 4 C28.06734375 4.57234375 28.06734375 4.57234375 29.15625 5.15625 C30.79291554 6.06550863 32.40070274 7.02651471 34 8 C34 8.66 34 9.32 34 10 C34.58523437 10.22171875 35.17046875 10.4434375 35.7734375 10.671875 C38.68434214 12.40820408 39.84471044 14.37957719 41.625 17.25 C42.21539062 18.18328125 42.80578125 19.1165625 43.4140625 20.078125 C46.35361788 25.49385757 47.27657543 29.97278854 47.25 36.125 C47.25773437 37.92324219 47.25773437 37.92324219 47.265625 39.7578125 C47 43 47 43 45 47 C45 41.72 45 36.44 45 31 C42.525 30.01 42.525 30.01 40 29 C40 28.34 40 27.68 40 27 C39.34 27 38.68 27 38 27 C37.67 27.66 37.34 28.32 37 29 C36.484375 27.824375 35.96875 26.64875 35.4375 25.4375 C32.4095913 19.36013164 27.58726336 14.79933908 22 11 C22.99 10.67 23.98 10.34 25 10 C24.00102287 7.00306862 23.34869747 5.97290587 21 4 C20.34 4 19.68 4 19 4 C18.01 5.485 18.01 5.485 17 7 C12.8410901 7.4621011 9.69978989 6.95266689 6 5 C5.34 4.01 4.68 3.02 4 2 C1.94996045 0.80767387 1.94996045 0.80767387 0 0 Z " fill="#161616" transform="translate(159,43)"/>
<path d="M0 0 C6.80862808 5.5654797 13.04592667 11.17205348 14.32421875 20.3203125 C14.71943175 29.01499843 11.95861017 35.97795833 6.5 42.6875 C1.27645198 48.23628781 -5.24896025 51.62448012 -12 55 C-10.38953162 51.0350457 -7.6097938 48.33619527 -4.6875 45.3125 C4.11787479 35.77654221 4.11787479 35.77654221 6.06738281 23.24853516 C5.7477353 17.25334178 5.37567245 11.5954483 3 6 C2.34 5.67 1.68 5.34 1 5 C0.375 2.4375 0.375 2.4375 0 0 Z " fill="#E99326" transform="translate(184,56)"/>
<path d="M0 0 C0.88680882 2.96658665 1.19498228 4.51097187 0.03125 7.4296875 C-3.0217463 12.30513567 -6.11245201 16.4780392 -10.3359375 20.39453125 C-11.97673653 21.97755566 -13.31007137 23.62487152 -14.6875 25.4375 C-15.450625 26.283125 -16.21375 27.12875 -17 28 C-18.32 28 -19.64 28 -21 28 C-21 29.98 -21 31.96 -21 34 C-24.465 34.495 -24.465 34.495 -28 35 C-28.54386333 29.55324929 -27.16263763 27.17299211 -23.8125 22.9375 C-23.03519531 21.93589844 -22.25789062 20.93429688 -21.45703125 19.90234375 C-19.09492855 17.1121334 -16.59175953 14.57487511 -14 12 C-12.90466779 10.67224966 -11.83775353 9.32008049 -10.8125 7.9375 C-10.32394531 7.28652344 -9.83539063 6.63554688 -9.33203125 5.96484375 C-7.94492341 4.02220461 -7.94492341 4.02220461 -6.94921875 1.81640625 C-5.15565241 -1.61572687 -3.29640179 -0.98892054 0 0 Z " fill="#0B070B" transform="translate(190,81)"/>
<path d="M0 0 C-0.44180881 4.06464102 -1.1760658 7.68123975 -2.46875 11.5625 C-4.14778739 17.05560337 -4.7504662 22.41549423 -5.1875 28.125 C-5.26935547 29.08148438 -5.35121094 30.03796875 -5.43554688 31.0234375 C-5.63316405 33.34834548 -5.82116848 35.67358492 -6 38 C-7.98 37.34 -9.96 36.68 -12 36 C-12.33 36.99 -12.66 37.98 -13 39 C-15.19113107 36.80886893 -14.36478146 32.5894635 -14.39599609 29.64331055 C-14.22721218 19.99899797 -11.86277995 8.43313802 -7 0 C-4.3333581 -1.33332095 -2.83319697 -0.67102033 0 0 Z " fill="#0D0709" transform="translate(137,84)"/>
<path d="M0 0 C2.31 0 4.62 0 7 0 C7 0.99 7 1.98 7 3 C7.721875 2.731875 8.44375 2.46375 9.1875 2.1875 C10.115625 2.125625 11.04375 2.06375 12 2 C13.70993434 3.6222454 15.37347684 5.29413425 17 7 C18.98248715 7.71706982 20.98415349 8.38290413 23 9 C23.99 9.70125 24.98 10.4025 26 11.125 C29.38294582 13.23934114 31.08592734 13.62269338 35 13 C35.66 12.01 36.32 11.02 37 10 C37.99 10.33 38.98 10.66 40 11 C40 11.66 40 12.32 40 13 C40.99 13.33 41.98 13.66 43 14 C43 14.99 43 15.98 43 17 C38.58023235 18.29993166 36.29264668 17.43088223 32 16 C28.34196911 15.53516735 24.67850755 15.24872471 21 15 C20.01 17.475 20.01 17.475 19 20 C15.96518745 19.68054605 14.4319583 19.47141116 12.33203125 17.1796875 C11.83058594 16.41914062 11.32914063 15.65859375 10.8125 14.875 C7.49834362 10.29796025 3.85393435 7.46587172 -0.86328125 4.41015625 C-3 3 -3 3 -5 1 C-2.525 1.495 -2.525 1.495 0 2 C0 1.34 0 0.68 0 0 Z " fill="#171012" transform="translate(141,36)"/>
<path d="M0 0 C1.65 0.66 3.3 1.32 5 2 C4.43876149 6.48990805 2.5304247 9.73080931 0.1875 13.5 C-3.77099828 20.09690807 -6.11028427 26.51573111 -8 34 C-8.66 34 -9.32 34 -10 34 C-10 33.34 -10 32.68 -10 32 C-10.66 32 -11.32 32 -12 32 C-12 31.34 -12 30.68 -12 30 C-12.66 30 -13.32 30 -14 30 C-14.33 31.32 -14.66 32.64 -15 34 C-16.90039516 30.19920968 -14.52593197 25.77471756 -13.37109375 21.890625 C-10.56196361 13.47794206 -6.49279654 6.06959539 0 0 Z " fill="#110B0A" transform="translate(157,88)"/>
<path d="M0 0 C0.99 0.33 1.98 0.66 3 1 C3.66 0.67 4.32 0.34 5 0 C5 0.66 5 1.32 5 2 C5.66 2 6.32 2 7 2 C7.99 4.97 8.98 7.94 10 11 C10 8.36 10 5.72 10 3 C10.66 3 11.32 3 12 3 C12.66 4.98 13.32 6.96 14 9 C16.31 9 18.62 9 21 9 C20.67 9.99 20.34 10.98 20 12 C19.34 12 18.68 12 18 12 C18 12.66 18 13.32 18 14 C15.69 14.66 13.38 15.32 11 16 C10.67 21.61 10.34 27.22 10 33 C7.03 33.495 7.03 33.495 4 34 C4.02094727 33.24380371 4.04189453 32.48760742 4.06347656 31.70849609 C4.14690585 28.264134 4.19874624 24.81998493 4.25 21.375 C4.28351562 20.18519531 4.31703125 18.99539062 4.3515625 17.76953125 C4.42566438 11.13741273 4.40360924 7.07975397 0 2 C0 1.34 0 0.68 0 0 Z " fill="#171516" transform="translate(50,116)"/>
<path d="M0 0 C4.58332006 -0.02901401 9.16661651 -0.04680348 13.75 -0.0625 C15.05195312 -0.07087891 16.35390625 -0.07925781 17.6953125 -0.08789062 C19.57089844 -0.09272461 19.57089844 -0.09272461 21.484375 -0.09765625 C23.21252441 -0.10551147 23.21252441 -0.10551147 24.97558594 -0.11352539 C27.51926964 -0.01804485 29.58398313 0.25082739 32 1 C32 1.99 32 2.98 32 4 C32.66 4.33 33.32 4.66 34 5 C33.67 5.66 33.34 6.32 33 7 C22.11 7 11.22 7 0 7 C0 4.66666667 0 2.33333333 0 0 Z " fill="#030203" transform="translate(104,180)"/>
<path d="M0 0 C-0.6264885 3.17515765 -1.73354621 5.42396891 -3.5 8.125 C-5.77023108 11.62273975 -7.14052849 13.77625116 -7.125 18 C-7.12757812 18.70125 -7.13015625 19.4025 -7.1328125 20.125 C-7.11377236 22.09153775 -7.11377236 22.09153775 -6 24 C-6.66 24 -7.32 24 -8 24 C-8 24.99 -8 25.98 -8 27 C-7.01 27 -6.02 27 -5 27 C-4.814375 27.804375 -4.62875 28.60875 -4.4375 29.4375 C-2.45967711 34.33906107 0.64379225 37.95958681 4 42 C4.51820312 42.63035156 5.03640625 43.26070312 5.5703125 43.91015625 C6.70453245 45.28094208 7.85074754 46.64179255 9 48 C1.12968454 46.03242113 -4.19832282 41.75881388 -8.4375 34.9375 C-10.36327348 31.61593429 -11.42992833 28.79643475 -12 25 C-12.15275391 23.99259766 -12.15275391 23.99259766 -12.30859375 22.96484375 C-12.76836447 15.7339043 -9.79848585 10.02007734 -6 4 C-2.47097844 0 -2.47097844 0 0 0 Z " fill="#E5A42B" transform="translate(39,58)"/>
<path d="M0 0 C2 0 2 0 4.5 2.3125 C7 5 7 5 9 8 C8.69136261 10.40737163 8.11297581 12.61086111 7.4375 14.9375 C6.86282829 17.64666665 6.93726655 20.23972841 7 23 C6.34 23.33 5.68 23.66 5 24 C3.68373308 20.38026598 3 17.90432869 3 14 C1.68 14 0.36 14 -1 14 C-2.34164079 13.7018576 -3.67851173 13.37756808 -5 13 C-5 12.34 -5 11.68 -5 11 C-4.34 11 -3.68 11 -3 11 C-3.99 10.01 -4.98 9.02 -6 8 C-6.99 8.495 -6.99 8.495 -8 9 C-10.125 8.0625 -10.125 8.0625 -12 7 C-11.34 5.35 -10.68 3.7 -10 2 C-8.125 2.3125 -8.125 2.3125 -6 3 C-5.01 4.485 -5.01 4.485 -4 6 C-3.34 6 -2.68 6 -2 6 C-1.34 4.02 -0.68 2.04 0 0 Z " fill="#070509" transform="translate(54,104)"/>
<path d="M0 0 C1.32 0 2.64 0 4 0 C5.125 3.75 5.125 3.75 4 6 C19.84 6.495 19.84 6.495 36 7 C36 7.33 36 7.66 36 8 C29.88428898 8.05006564 23.76870164 8.08602903 17.65283203 8.10986328 C15.57956866 8.119817 13.50631893 8.13338483 11.43310547 8.15087891 C-0.89050148 8.25213619 -12.81518287 7.97369116 -25 6 C-24.34 5.525625 -23.68 5.05125 -23 4.5625 C-22.34 4.046875 -21.68 3.53125 -21 3 C-21 2.67 -21 2.34 -21 2 C-15.555 1.505 -15.555 1.505 -10 1 C-10 1.33 -10 1.66 -10 2 C-8.52031676 1.85950482 -7.04125484 1.71245174 -5.5625 1.5625 C-4.73878906 1.48128906 -3.91507813 1.40007812 -3.06640625 1.31640625 C-1.01337975 1.21069185 -1.01337975 1.21069185 0 0 Z " fill="#232323" transform="translate(100,180)"/>
<path d="M0 0 C0.33 0 0.66 0 1 0 C1.33 2.64 1.66 5.28 2 8 C4.64 8 7.28 8 10 8 C10.33 7.01 10.66 6.02 11 5 C11.66 5 12.32 5 13 5 C13 9.29 13 13.58 13 18 C7.39 18 1.78 18 -4 18 C-4 11 -4 11 -2 8 C-1.34 8 -0.68 8 0 8 C0 5.36 0 2.72 0 0 Z " fill="#F1AA2F" transform="translate(110,104)"/>
<path d="M0 0 C0.66 0.66 1.32 1.32 2 2 C1.73445312 2.70125 1.46890625 3.4025 1.1953125 4.125 C-0.88342729 9.70876819 -2.68423863 15.18872063 -4 21 C-10.625 21.125 -10.625 21.125 -14 20 C-14 15.71 -14 11.42 -14 7 C-13.67 7.99 -13.34 8.98 -13 10 C-12.01 10 -11.02 10 -10 10 C-9.67 9.01 -9.34 8.02 -9 7 C-7.67696283 6.6278958 -6.34262065 6.29369827 -5 6 C-4.67 5.34 -4.34 4.68 -4 4 C-3.34 4 -2.68 4 -2 4 C-2 3.34 -2 2.68 -2 2 C-1.34 2 -0.68 2 0 2 C0 1.34 0 0.68 0 0 Z " fill="#DF9436" transform="translate(145,102)"/>
<path d="M0 0 C0 0.66 0 1.32 0 2 C-0.66 2 -1.32 2 -2 2 C-2.66 3.32 -3.32 4.64 -4 6 C-4.66 6 -5.32 6 -6 6 C-6 7.32 -6 8.64 -6 10 C-10.61012242 12.95047835 -13.36529617 14.5497272 -19 14 C-19 13.01 -19 12.02 -19 11 C-19.99 11.495 -19.99 11.495 -21 12 C-21 10.68 -21 9.36 -21 8 C-16.69597588 3.74795685 -6.04238967 -3.02119484 0 0 Z " fill="#040504" transform="translate(52,44)"/>
<path d="M0 0 C5.28 0 10.56 0 16 0 C16 3.3 16 6.6 16 10 C11.38 10.33 6.76 10.66 2 11 C1.34 7.37 0.68 3.74 0 0 Z " fill="#F1AB2A" transform="translate(83,112)"/>
<path d="M0 0 C0.66 0 1.32 0 2 0 C2 0.66 2 1.32 2 2 C3.65 2 5.3 2 7 2 C9.62299724 7.24599449 8.19826732 15.45801366 7 21 C6.01 21 5.02 21 4 21 C3.67 21.99 3.34 22.98 3 24 C1.68 23.67 0.36 23.34 -1 23 C-0.505 21.515 -0.505 21.515 0 20 C0.08106686 18.44578271 0.10756898 16.88832973 0.09765625 15.33203125 C0.09443359 14.43935547 0.09121094 13.54667969 0.08789062 12.62695312 C0.07951172 11.69818359 0.07113281 10.76941406 0.0625 9.8125 C0.05573242 8.40194336 0.05573242 8.40194336 0.04882812 6.96289062 C0.03704626 4.64186288 0.02059558 2.32096356 0 0 Z " fill="#040305" transform="translate(197,70)"/>
<path d="M0 0 C1.74216797 0.04060547 1.74216797 0.04060547 3.51953125 0.08203125 C4.39996094 0.11683594 5.28039062 0.15164062 6.1875 0.1875 C6.1875 1.1775 6.1875 2.1675 6.1875 3.1875 C5.5275 3.1875 4.8675 3.1875 4.1875 3.1875 C4.1875 3.8475 4.1875 4.5075 4.1875 5.1875 C3.46304688 5.25066406 2.73859375 5.31382813 1.9921875 5.37890625 C-3.33859636 6.05413887 -6.94077789 6.56716278 -10.5 10.8125 C-11.30010657 11.91687245 -12.08253063 13.03556522 -12.8125 14.1875 C-14.4625 13.8575 -16.1125 13.5275 -17.8125 13.1875 C-17.1525 11.2075 -16.4925 9.2275 -15.8125 7.1875 C-15.1525 7.1875 -14.4925 7.1875 -13.8125 7.1875 C-13.8125 6.5275 -13.8125 5.8675 -13.8125 5.1875 C-13.1525 5.1875 -12.4925 5.1875 -11.8125 5.1875 C-11.8125 4.5275 -11.8125 3.8675 -11.8125 3.1875 C-7.87993146 0.12883558 -4.89581268 -0.14835796 0 0 Z " fill="#F9CE7F" transform="translate(75.8125,41.8125)"/>
<path d="M0 0 C0.98484375 0.00902344 1.9696875 0.01804688 2.984375 0.02734375 C4.10585937 0.04474609 4.10585937 0.04474609 5.25 0.0625 C5.25 0.3925 5.25 0.7225 5.25 1.0625 C2.94 1.3925 0.63 1.7225 -1.75 2.0625 C-1.75 2.7225 -1.75 3.3825 -1.75 4.0625 C-1.09 4.3925 -0.43 4.7225 0.25 5.0625 C-0.48605469 5.18367188 -1.22210938 5.30484375 -1.98046875 5.4296875 C-2.95628906 5.59726562 -3.93210937 5.76484375 -4.9375 5.9375 C-6.38189453 6.18113281 -6.38189453 6.18113281 -7.85546875 6.4296875 C-10.66032604 7.04289517 -13.12224747 7.91916343 -15.75 9.0625 C-15.75 9.7225 -15.75 10.3825 -15.75 11.0625 C-16.41 11.0625 -17.07 11.0625 -17.75 11.0625 C-17.75 11.7225 -17.75 12.3825 -17.75 13.0625 C-18.41 13.0625 -19.07 13.0625 -19.75 13.0625 C-19.976875 13.84625 -20.20375 14.63 -20.4375 15.4375 C-21.75 18.0625 -21.75 18.0625 -24.375 19.375 C-25.15875 19.601875 -25.9425 19.82875 -26.75 20.0625 C-23.38996526 11.6154853 -20.20951275 5.81082579 -11.71484375 1.82421875 C-7.70808568 0.270903 -4.30361517 -0.05123351 0 0 Z " fill="#E8A627" transform="translate(79.75,35.9375)"/>
<path d="M0 0 C0.99 0 1.98 0 3 0 C3 0.66 3 1.32 3 2 C3.99 2.33 4.98 2.66 6 3 C6.99 3.66 7.98 4.32 9 5 C9.33 4.34 9.66 3.68 10 3 C10.98020375 1.9805881 11.97803008 0.97753644 13 0 C13 0.66 13 1.32 13 2 C14.65 1.34 16.3 0.68 18 0 C18.66 0.66 19.32 1.32 20 2 C18.21190303 3.17213045 16.41940875 4.33755526 14.625 5.5 C13.62726563 6.1496875 12.62953125 6.799375 11.6015625 7.46875 C9 9 9 9 7 9 C6.34 10.98 5.68 12.96 5 15 C4.67 13.68 4.34 12.36 4 11 C3.34 11 2.68 11 2 11 C1.34 11.66 0.68 12.32 0 13 C-0.66 13 -1.32 13 -2 13 C-2.33 11.35 -2.66 9.7 -3 8 C-3.99 7.67 -4.98 7.34 -6 7 C-4.7934375 6.6596875 -4.7934375 6.6596875 -3.5625 6.3125 C-2.716875 5.879375 -1.87125 5.44625 -1 5 C-0.10613836 2.45224694 -0.10613836 2.45224694 0 0 Z " fill="#171514" transform="translate(169,109)"/>
<path d="M0 0 C0.66 0 1.32 0 2 0 C2 0.66 2 1.32 2 2 C3.32 2 4.64 2 6 2 C6.33 2.99 6.66 3.98 7 5 C6.20335937 5.54527344 6.20335937 5.54527344 5.390625 6.1015625 C1.81685728 8.64493734 -0.73962433 10.60571685 -3.1875 14.3125 C-5 17 -5 17 -7.625 18 C-8.40875 18 -9.1925 18 -10 18 C-10.66 17.34 -11.32 16.68 -12 16 C-11.67582137 12.19090105 -11.14418558 10.21627837 -9 7 C-8.34 7 -7.68 7 -7 7 C-6.34 8.32 -5.68 9.64 -5 11 C-5 10.67 -5 10.34 -5 10 C-5 8.68 -5 7.36 -5 6 C-3.70264493 4.95374591 -2.36733028 3.95298777 -1 3 C-0.67 2.01 -0.34 1.02 0 0 Z " fill="#0D0809" transform="translate(100,31)"/>
<path d="M0 0 C-0.25 1.875 -0.25 1.875 -1 4 C-3 5.125 -3 5.125 -5 6 C-5.33 6.66 -5.66 7.32 -6 8 C-6.66 8 -7.32 8 -8 8 C-8.144375 8.763125 -8.28875 9.52625 -8.4375 10.3125 C-9 13 -9 13 -10 16 C-10.66 16 -11.32 16 -12 16 C-12.33 17.32 -12.66 18.64 -13 20 C-13.99 20 -14.98 20 -16 20 C-16.6102995 13.16464565 -15.23542059 9.38077377 -11 4 C-7.51661618 0.19994492 -5.15961559 0 0 0 Z " fill="#F9CF7F" transform="translate(48,58)"/>
<path d="M0 0 C6.32868862 -0.17743987 12.25766516 0.49287912 18.5 1.5 C19.87671875 1.71462891 19.87671875 1.71462891 21.28125 1.93359375 C23.52174119 2.2836705 25.76120947 2.6392349 28 3 C27.67 3.66 27.34 4.32 27 5 C23.10835652 6.29721449 20.10570774 6.13033993 16 6 C15.34 5.67 14.68 5.34 14 5 C10.93685156 5.24662241 10.93685156 5.24662241 8 6 C7.67 6.66 7.34 7.32 7 8 C4.69 7.67 2.38 7.34 0 7 C0 4.69 0 2.38 0 0 Z " fill="#090508" transform="translate(72,177)"/>
<path d="M0 0 C0 0.66 0 1.32 0 2 C0.99 2.66 1.98 3.32 3 4 C-8.56503774 5.75774306 -19.81378387 6.2542777 -31.5 6.125 C-33.11327558 6.11493124 -34.72655737 6.1058124 -36.33984375 6.09765625 C-40.22672105 6.07599453 -44.11328807 6.04168915 -48 6 C-48 5.67 -48 5.34 -48 5 C-32.16 4.01 -32.16 4.01 -16 3 C-16 2.34 -16 1.68 -16 1 C-14.23225581 0.46877637 -12.46065917 -0.04964073 -10.6875 -0.5625 C-9.70136719 -0.85253906 -8.71523437 -1.14257812 -7.69921875 -1.44140625 C-4.4816836 -2.10726374 -2.89043512 -1.44521756 0 0 Z " fill="#CE8331" transform="translate(144,174)"/>
<path d="M0 0 C0.33 0 0.66 0 1 0 C1.07427838 3.34252724 1.06546953 5.8035914 0 9 C0.99 9.33 1.98 9.66 3 10 C3.33 8.68 3.66 7.36 4 6 C4.99 6.33 5.98 6.66 7 7 C5.36056732 14.10420828 0.62172392 20.5182199 -5.4375 24.5625 C-6.283125 25.036875 -7.12875 25.51125 -8 26 C-8.66 24.68 -9.32 23.36 -10 22 C-9.34 21.34 -8.68 20.68 -8 20 C-6.68 20 -5.36 20 -4 20 C-4.061875 19.05125 -4.12375 18.1025 -4.1875 17.125 C-4.125625 16.09375 -4.06375 15.0625 -4 14 C-3.01 13.34 -2.02 12.68 -1 12 C-2.32 11.67 -3.64 11.34 -5 11 C-4.0409375 9.39125 -4.0409375 9.39125 -3.0625 7.75 C-1.59398727 5.19177818 -0.47145458 2.94659114 0 0 Z " fill="#121212" transform="translate(197,84)"/>
<path d="M0 0 C0.99 0.66 1.98 1.32 3 2 C4.33568021 1.67619874 5.66923011 1.34342449 7 1 C7.66 1.66 8.32 2.32 9 3 C3.08974184 5.79884822 -2.78708827 7.54583712 -9.1875 8.75 C-9.85201172 8.87737549 -10.51652344 9.00475098 -11.20117188 9.13598633 C-15.50982853 9.89920046 -19.63045797 10.11334739 -24 10 C-24.33 8.68 -24.66 7.36 -25 6 C-23.80761719 5.93941406 -22.61523438 5.87882813 -21.38671875 5.81640625 C-19.82030075 5.73198851 -18.25389512 5.64734113 -16.6875 5.5625 C-15.90181641 5.52318359 -15.11613281 5.48386719 -14.30664062 5.44335938 C-13.1706543 5.38051758 -13.1706543 5.38051758 -12.01171875 5.31640625 C-11.31522217 5.27974854 -10.61872559 5.24309082 -9.90112305 5.20532227 C-7.7783428 5.04418847 -7.7783428 5.04418847 -5 4 C-5 3.34 -5 2.68 -5 2 C-2.6875 0.875 -2.6875 0.875 0 0 Z " fill="#242222" transform="translate(161,177)"/>
<path d="M0 0 C0 0.66 0 1.32 0 2 C2.475 2.495 2.475 2.495 5 3 C4.01 3.495 4.01 3.495 3 4 C3 4.66 3 5.32 3 6 C1.125 6.625 1.125 6.625 -1 7 C-1.66 6.34 -2.32 5.68 -3 5 C-5.9093558 4.85482256 -8.719946 4.81369204 -11.625 4.875 C-12.82769531 4.88853516 -12.82769531 4.88853516 -14.0546875 4.90234375 C-16.03658523 4.92593777 -18.01832981 4.96180935 -20 5 C-20.33 4.34 -20.66 3.68 -21 3 C-23.01669827 1.86649466 -23.01669827 1.86649466 -25 1 C-16.32749491 -1.24842724 -8.86012017 -1.26573145 0 0 Z " fill="#272727" transform="translate(92,28)"/>
<path d="M0 0 C1.11375 0.2475 1.11375 0.2475 2.25 0.5 C5.19006578 1.11925696 5.19006578 1.11925696 9 1 C8.01 2.32 7.02 3.64 6 5 C7.32 5.33 8.64 5.66 10 6 C10.33 5.01 10.66 4.02 11 3 C14.21043882 4.38188453 16.04936365 5.92421903 18.25 8.625 C18.77078125 9.25664063 19.2915625 9.88828125 19.828125 10.5390625 C20.40820312 11.26222656 20.40820312 11.26222656 21 12 C20.01 12 19.02 12 18 12 C17.67 11.01 17.34 10.02 17 9 C16.67 9.66 16.34 10.32 16 11 C15.34 11 14.68 11 14 11 C14 12.65 14 14.3 14 16 C11.03824877 15.38722388 9.61941217 14.74627478 7 13 C7 11.68 7 10.36 7 9 C5.48483989 7.07613606 5.48483989 7.07613606 3.5 5.375 C2.30054834 4.2850221 1.12574382 3.16594896 0 2 C0 1.34 0 0.68 0 0 Z " fill="#16120F" transform="translate(39,95)"/>
<path d="M0 0 C8.14638072 0.49215019 15.99530193 1.39906039 24 3 C24 7.29 24 11.58 24 16 C20.7 15.67 17.4 15.34 14 15 C17.22791555 12.8480563 18.28400809 12.79913557 22 13 C21.67 10.03 21.34 7.06 21 4 C14.47529394 3.8501391 14.47529394 3.8501391 8 4.5 C3.66913015 5.22181164 -0.61971803 5.07791015 -5 5 C-5 4.34 -5 3.68 -5 3 C-3.35 2.67 -1.7 2.34 0 2 C0 1.34 0 0.68 0 0 Z " fill="#DC8E32" transform="translate(141,131)"/>
<path d="M0 0 C1.76923828 0.01353516 1.76923828 0.01353516 3.57421875 0.02734375 C4.47785156 0.03894531 5.38148437 0.05054688 6.3125 0.0625 C6.3125 1.0525 6.3125 2.0425 6.3125 3.0625 C4.70181641 3.40861328 4.70181641 3.40861328 3.05859375 3.76171875 C-7.61718136 6.14663951 -7.61718136 6.14663951 -16.6875 12.0625 C-17.0175 12.0625 -17.3475 12.0625 -17.6875 12.0625 C-17.92578125 9.765625 -17.92578125 9.765625 -17.6875 7.0625 C-16.04296875 5.296875 -16.04296875 5.296875 -13.875 3.8125 C-13.16730469 3.31234375 -12.45960937 2.8121875 -11.73046875 2.296875 C-7.78125698 -0.08926443 -4.5177367 -0.04473007 0 0 Z " fill="#F8C35F" transform="translate(121.6875,39.9375)"/>
<path d="M0 0 C1.32 0 2.64 0 4 0 C3.67 5.61 3.34 11.22 3 17 C1.02 16.34 -0.96 15.68 -3 15 C-3.33 15.99 -3.66 16.98 -4 18 C-5 17 -5 17 -5.09765625 13.62109375 C-5.09098369 12.22652923 -5.07902532 10.83198257 -5.0625 9.4375 C-5.05798828 8.72658203 -5.05347656 8.01566406 -5.04882812 7.28320312 C-5.03700864 5.52209987 -5.01907263 3.76103964 -5 2 C-4.67 2 -4.34 2 -4 2 C-4 3.65 -4 5.3 -4 7 C-3.01 7 -2.02 7 -1 7 C-1.020625 6.030625 -1.04125 5.06125 -1.0625 4.0625 C-1 1 -1 1 0 0 Z " fill="#120D11" transform="translate(128,105)"/>
<path d="M0 0 C0.33 0 0.66 0 1 0 C1 2.31 1 4.62 1 7 C0.34 7 -0.32 7 -1 7 C-1.33 8.32 -1.66 9.64 -2 11 C-0.68 10.67 0.64 10.34 2 10 C-3.31971723 17.24072623 -10.04449121 21.0222456 -18 25 C-16.39036958 21.03710873 -13.6136377 18.33097081 -10.6875 15.3125 C-6.22383678 10.59952291 -2.71947067 5.94978113 0 0 Z " fill="#D98B31" transform="translate(190,86)"/>
<path d="M0 0 C-1.98 0.99 -1.98 0.99 -4 2 C-2.68 2.66 -1.36 3.32 0 4 C-9.55475338 4.91332201 -18.91186246 5.03627754 -28.5 4.625 C-29.51384766 4.58189697 -30.52769531 4.53879395 -31.57226562 4.49438477 C-37.0948923 4.22782234 -42.52459833 3.76916357 -48 3 C-48 2.67 -48 2.34 -48 2 C-47.35675781 2.01047363 -46.71351562 2.02094727 -46.05078125 2.03173828 C-34.38599044 2.19606041 -22.97954348 2.25992792 -11.4375 0.4375 C-7.56463021 -0.0554107 -3.90069607 -0.06843326 0 0 Z " fill="#E79125" transform="translate(136,173)"/>
<path d="M0 0 C2.38564077 0.57584432 4.66682784 1.22227595 7 2 C10.6885493 8.96725978 10.73581217 16.24052616 10 24 C9.34 25.32 8.68 26.64 8 28 C8 22.72 8 17.44 8 12 C5.525 11.01 5.525 11.01 3 10 C3 9.34 3 8.68 3 8 C2.34 8 1.68 8 1 8 C0.67 8.66 0.34 9.32 0 10 C-1.125 6.6875 -1.125 6.6875 -2 3 C-1.34 2.01 -0.68 1.02 0 0 Z " fill="#080707" transform="translate(196,62)"/>
<path d="M0 0 C3.38994192 0.3988167 5.09471935 1.06650507 7.9375 3.0625 C11.35991831 5.22770342 13.03028084 5.63154623 17 5 C17.66 4.01 18.32 3.02 19 2 C19.99 2.33 20.98 2.66 22 3 C22 3.66 22 4.32 22 5 C22.99 5.33 23.98 5.66 25 6 C25 6.99 25 7.98 25 9 C20.60424495 10.29286913 18.25646626 9.47339217 14 8 C12.48220181 7.82538605 10.9606895 7.6812229 9.4375 7.5625 C5.63750333 7.19020303 2.96507126 6.58248142 0 4 C0 2.68 0 1.36 0 0 Z " fill="#0C090B" transform="translate(159,44)"/>
<path d="M0 0 C-0.6264885 3.17515765 -1.73354621 5.42396891 -3.5 8.125 C-5.77023108 11.62273975 -7.14052849 13.77625116 -7.125 18 C-7.12757812 18.70125 -7.13015625 19.4025 -7.1328125 20.125 C-7.11377236 22.09153775 -7.11377236 22.09153775 -6 24 C-6.66 24 -7.32 24 -8 24 C-8 24.99 -8 25.98 -8 27 C-7.01 27 -6.02 27 -5 27 C-5.33 28.32 -5.66 29.64 -6 31 C-6.99 31 -7.98 31 -9 31 C-9.33 26.71 -9.66 22.42 -10 18 C-10.33 20.31 -10.66 22.62 -11 25 C-11.33 25 -11.66 25 -12 25 C-12.82692369 16.73076315 -10.40636248 10.98347816 -6 4 C-2.47097844 0 -2.47097844 0 0 0 Z " fill="#DCA42A" transform="translate(39,58)"/>
<path d="M0 0 C0.66 0.66 1.32 1.32 2 2 C-2.29671102 2.15624404 -6.06980777 2.0941745 -10.25 1.0625 C-16.48264119 -0.45765639 -23.82233554 -2.05922149 -30 0 C-30.66 -0.66 -31.32 -1.32 -32 -2 C-21.33676965 -6.02689968 -10.24514263 -4.71001524 0 0 Z " fill="#E7A72A" transform="translate(138,38)"/>
<path d="M0 0 C0.33 0 0.66 0 1 0 C1.05428973 2.22889496 1.09292338 4.45817471 1.125 6.6875 C1.14820312 7.92886719 1.17140625 9.17023438 1.1953125 10.44921875 C1.01032021 13.81237857 0.45767895 15.9985587 -1 19 C-2.65 18.67 -4.3 18.34 -6 18 C-6.22127098 15.70954632 -6.4266504 13.41755236 -6.625 11.125 C-6.74101563 9.84882812 -6.85703125 8.57265625 -6.9765625 7.2578125 C-6.98816406 5.64519531 -6.98816406 5.64519531 -7 4 C-6.34 3.34 -5.68 2.68 -5 2 C-4.34 3.32 -3.68 4.64 -3 6 C-2.01 6 -1.02 6 0 6 C0 4.02 0 2.04 0 0 Z " fill="#06070E" transform="translate(105,106)"/>
<path d="M0 0 C0.66 0.66 1.32 1.32 2 2 C2.66 1.34 3.32 0.68 4 0 C4.33 0.33 4.66 0.66 5 1 C4.91036938 2.69141656 4.75422324 4.37959602 4.5625 6.0625 C4.46066406 6.98160156 4.35882813 7.90070313 4.25390625 8.84765625 C4.17011719 9.55792969 4.08632812 10.26820312 4 11 C2.68 11.33 1.36 11.66 0 12 C-0.33 13.98 -0.66 15.96 -1 18 C-1.99 18 -2.98 18 -4 18 C-4.14285714 9.42857143 -4.14285714 9.42857143 -3 6 C-2.34 6 -1.68 6 -1 6 C-0.67 4.02 -0.34 2.04 0 0 Z " fill="#060508" transform="translate(128,94)"/>
<path d="M0 0 C1.65 0 3.3 0 5 0 C4.67 1.32 4.34 2.64 4 4 C4.66 4.33 5.32 4.66 6 5 C4.8125 8.4375 4.8125 8.4375 3 12 C0.3125 12.9375 0.3125 12.9375 -2 13 C-2.33 12.01 -2.66 11.02 -3 10 C-3.66 10 -4.32 10 -5 10 C-5 7 -5 7 -3.125 4.8125 C-1 3 -1 3 1 3 C0.67 2.01 0.34 1.02 0 0 Z " fill="#09060A" transform="translate(51,43)"/>
<path d="M0 0 C2.475 0.99 2.475 0.99 5 2 C3.02 4.97 3.02 4.97 1 8 C3.76264289 8.59732819 6.16032769 9 9 9 C9.33 9.99 9.66 10.98 10 12 C9.34 12 8.68 12 8 12 C7.67 12.66 7.34 13.32 7 14 C4.70325618 12.73769041 2.41285291 11.46574267 0.125 10.1875 C-0.52597656 9.83107422 -1.17695312 9.47464844 -1.84765625 9.10742188 C-5.06597903 7.29918897 -6.9196783 6.12048255 -9 3 C-7.25 1.875 -7.25 1.875 -5 1 C-2.75 1.875 -2.75 1.875 -1 3 C-1 3.66 -1 4.32 -1 5 C-0.34 5 0.32 5 1 5 C0.67 3.35 0.34 1.7 0 0 Z " fill="#1E1B1B" transform="translate(41,103)"/>
<path d="M0 0 C2.475 0.99 2.475 0.99 5 2 C4.34 6.62 3.68 11.24 3 16 C2.67 16 2.34 16 2 16 C1.67 13.69 1.34 11.38 1 9 C0.01 9 -0.98 9 -2 9 C-2 9.66 -2 10.32 -2 11 C-2.66 11 -3.32 11 -4 11 C-4.33 12.32 -4.66 13.64 -5 15 C-4.88512252 13.41590006 -4.75765492 11.83271037 -4.625 10.25 C-4.55539063 9.36828125 -4.48578125 8.4865625 -4.4140625 7.578125 C-3.99616748 4.97613712 -3.39354867 3.22566767 -2 1 C-1.34 0.67 -0.68 0.34 0 0 Z " fill="#0F0709" transform="translate(59,63)"/>
<path d="M0 0 C2.31 0 4.62 0 7 0 C7 0.99 7 1.98 7 3 C8.32 2.67 9.64 2.34 11 2 C11.6875 5.3125 11.6875 5.3125 12 9 C10.51953125 10.73046875 10.51953125 10.73046875 9 12 C8.32453125 11.45730469 7.6490625 10.91460937 6.953125 10.35546875 C6.06109375 9.64003906 5.1690625 8.92460938 4.25 8.1875 C3.36828125 7.47980469 2.4865625 6.77210937 1.578125 6.04296875 C-0.58992929 4.32494998 -2.77728901 2.64626024 -5 1 C-2.525 1.495 -2.525 1.495 0 2 C0 1.34 0 0.68 0 0 Z " fill="#1A0F10" transform="translate(141,36)"/>
<path d="M0 0 C3.96193606 0.58326527 6.77394436 1.79897978 10.1875 3.875 C11.04730469 4.38804688 11.90710938 4.90109375 12.79296875 5.4296875 C15 7 15 7 17 10 C16.34 10 15.68 10 15 10 C14.67 10.99 14.34 11.98 14 13 C13.34 11.68 12.68 10.36 12 9 C10.9275 9.20625 9.855 9.4125 8.75 9.625 C5.12380904 9.9876191 3.91708924 9.98362069 1 8 C2.65 7.67 4.3 7.34 6 7 C5.67 6.34 5.34 5.68 5 5 C3.35 5 1.7 5 0 5 C-0.33 4.01 -0.66 3.02 -1 2 C-0.67 1.34 -0.34 0.68 0 0 Z " fill="#1B1B1C" transform="translate(134,28)"/>
<path d="M0 0 C0 0.99 0 1.98 0 3 C-3.06957098 4.02319033 -5.22440323 4.13371939 -8.4375 4.125 C-9.85869141 4.12886719 -9.85869141 4.12886719 -11.30859375 4.1328125 C-13.70140459 4.01473475 -15.71336153 3.68112635 -18 3 C-17.98839844 3.75925781 -17.97679687 4.51851562 -17.96484375 5.30078125 C-17.95582031 6.29464844 -17.94679687 7.28851563 -17.9375 8.3125 C-17.92589844 9.29863281 -17.91429687 10.28476563 -17.90234375 11.30078125 C-18 14 -18 14 -19 17 C-18.34 17 -17.68 17 -17 17 C-16.67 17.99 -16.34 18.98 -16 20 C-18.475 19.01 -18.475 19.01 -21 18 C-20.34 12.72 -19.68 7.44 -19 2 C-16.793125 1.67 -14.58625 1.34 -12.3125 1 C-10.45044922 0.7215625 -10.45044922 0.7215625 -8.55078125 0.4375 C-5.64113629 0.07899589 -2.92299978 -0.08942256 0 0 Z " fill="#E9A526" transform="translate(80,153)"/>
<path d="M0 0 C2.42901902 2.42901902 2.32209476 3.15638857 2.375 6.5 C2.276313 12.14983085 0.73384209 17.06112469 -2 22 C-2.66 22.33 -3.32 22.66 -4 23 C-3.67 17.39 -3.34 11.78 -3 6 C-2.34 5.67 -1.68 5.34 -1 5 C-0.34444881 2.47266765 -0.34444881 2.47266765 0 0 Z " fill="#DB8E31" transform="translate(196,72)"/>
<path d="M0 0 C0.33 1.32 0.66 2.64 1 4 C0.01 4.495 0.01 4.495 -1 5 C-1 5.99 -1 6.98 -1 8 C0.32 8 1.64 8 3 8 C3 7.34 3 6.68 3 6 C4.32 6 5.64 6 7 6 C7 6.66 7 7.32 7 8 C2.38987758 10.95047835 -0.36529617 12.5497272 -6 12 C-6 11.01 -6 10.02 -6 9 C-6.99 9.495 -6.99 9.495 -8 10 C-8 8.68 -8 7.36 -8 6 C-6.25 4.296875 -6.25 4.296875 -4 2.75 C-3.2575 2.22921875 -2.515 1.7084375 -1.75 1.171875 C-1.1725 0.78515625 -0.595 0.3984375 0 0 Z " fill="#171212" transform="translate(39,46)"/>
<path d="M0 0 C0.66 1.32 1.32 2.64 2 4 C4.31386295 3.71935082 6.62609008 3.42518311 8.9375 3.125 C10.22527344 2.96257812 11.51304688 2.80015625 12.83984375 2.6328125 C13.88269531 2.42398438 14.92554687 2.21515625 16 2 C16.33 1.34 16.66 0.68 17 0 C17 2.31 17 4.62 17 7 C11.39 7 5.78 7 0 7 C0 4.69 0 2.38 0 0 Z " fill="#C1812C" transform="translate(106,115)"/>
<path d="M0 0 C4.44907205 1.48302402 6.74579392 5.08285501 9 9 C9 9.66 9 10.32 9 11 C7.88625 10.690625 7.88625 10.690625 6.75 10.375 C3.67669159 9.95591249 2.57213134 10.38050989 0 12 C-0.66 11.01 -1.32 10.02 -2 9 C-1.01 8.34 -0.02 7.68 1 7 C0.34 6.67 -0.32 6.34 -1 6 C-1 5.34 -1 4.68 -1 4 C-1.66 4 -2.32 4 -3 4 C-3 3.34 -3 2.68 -3 2 C-2.01 2 -1.02 2 0 2 C0 1.34 0 0.68 0 0 Z " fill="#1E1C1D" transform="translate(193,53)"/>
<path d="M0 0 C0.4125 0.66 0.825 1.32 1.25 2 C1.8275 2.66 2.405 3.32 3 4 C4.32 4 5.64 4 7 4 C6.34 7.3 5.68 10.6 5 14 C4.34 14 3.68 14 3 14 C3 13.34 3 12.68 3 12 C2.34 12 1.68 12 1 12 C1 11.34 1 10.68 1 10 C0.34 10 -0.32 10 -1 10 C-1.33 11.32 -1.66 12.64 -2 14 C-3.49341969 11.01316063 -2.40648676 9.04839022 -1.5625 5.875 C-1.27503906 4.77929688 -0.98757812 3.68359375 -0.69140625 2.5546875 C-0.46324219 1.71164063 -0.23507813 0.86859375 0 0 Z " fill="#1E1914" transform="translate(144,108)"/>
<path d="M0 0 C0 0.99 0 1.98 0 3 C-4.455 3.495 -4.455 3.495 -9 4 C-8.01 4.66 -7.02 5.32 -6 6 C-12.6 6 -19.2 6 -26 6 C-26.33 5.34 -26.66 4.68 -27 4 C-26.31373535 3.91435791 -25.6274707 3.82871582 -24.92041016 3.74047852 C-21.82145205 3.35159892 -18.72323203 2.95712079 -15.625 2.5625 C-14.54476562 2.42779297 -13.46453125 2.29308594 -12.3515625 2.15429688 C-10.8046875 1.95610352 -10.8046875 1.95610352 -9.2265625 1.75390625 C-7.79691162 1.57323608 -7.79691162 1.57323608 -6.33837891 1.38891602 C-3.9788622 0.99648439 -2.37770989 0 0 0 Z " fill="#0D0607" transform="translate(158,175)"/>
<path d="M0 0 C1.98 0.495 1.98 0.495 4 1 C4.33 2.32 4.66 3.64 5 5 C5.99 4.01 6.98 3.02 8 2 C8.66 3.98 9.32 5.96 10 8 C9.01 8 8.02 8 7 8 C7 9.32 7 10.64 7 12 C5.68 12 4.36 12 3 12 C2.30314502 10.3789897 1.61777139 8.75303934 0.9375 7.125 C0.55464844 6.22007813 0.17179687 5.31515625 -0.22265625 4.3828125 C-1 2 -1 2 0 0 Z " fill="#1A1818" transform="translate(74,108)"/>
<path d="M0 0 C0.66 0 1.32 0 2 0 C2 1.32 2 2.64 2 4 C3.65 4 5.3 4 7 4 C7.33 4.99 7.66 5.98 8 7 C3.57756501 9.56786548 0.48856529 8.71809676 -4.20703125 7.5078125 C-4.79871094 7.34023438 -5.39039062 7.17265625 -6 7 C-6 6.01 -6 5.02 -6 4 C-5.38125 3.71125 -4.7625 3.4225 -4.125 3.125 C-1.86674235 2.06279958 -1.86674235 2.06279958 0 0 Z " fill="#08060B" transform="translate(132,28)"/>
<path d="M0 0 C2 2 2 2 3 5 C3.9590625 5.4640625 3.9590625 5.4640625 4.9375 5.9375 C7.51771592 7.26670214 7.97746785 8.32568514 9 11 C9.36784131 12.3242287 9.71202981 13.65613912 10 15 C9.34 15 8.68 15 8 15 C7.67 16.32 7.34 17.64 7 19 C6.67 16.36 6.34 13.72 6 11 C4.68 11.33 3.36 11.66 2 12 C1.566875 10.63875 1.566875 10.63875 1.125 9.25 C0.23468224 6.67797092 -0.71494413 4.38653234 -2 2 C-1.34 1.34 -0.68 0.68 0 0 Z " fill="#040407" transform="translate(71,98)"/>
<path d="M0 0 C2.75 0.25 2.75 0.25 5 1 C5 1.99 5 2.98 5 4 C4.01 4 3.02 4 2 4 C2 4.66 2 5.32 2 6 C2.66 6 3.32 6 4 6 C4 6.66 4 7.32 4 8 C4.99 8.33 5.98 8.66 7 9 C6.34 9.66 5.68 10.32 5 11 C3.1875 11 3.1875 11 1 10 C-0.8456968 8.10171925 -2.38401815 6.10975408 -4 4 C-2.3125 1.9375 -2.3125 1.9375 0 0 Z " fill="#170F0B" transform="translate(188,51)"/>
<path d="M0 0 C4.05445642 -0.43132515 5.54970958 -0.30019361 9 2 C9 3.32 9 4.64 9 6 C7.68 6 6.36 6 5 6 C4.67 6.99 4.34 7.98 4 9 C3 6 3 6 4 3 C2.02 3 0.04 3 -2 3 C-1.34 2.01 -0.68 1.02 0 0 Z M0 9 C0.99 9.33 1.98 9.66 3 10 C1.625 12 1.625 12 0 14 C-0.66 14 -1.32 14 -2 14 C-2 12.68 -2 11.36 -2 10 C-1.34 9.67 -0.68 9.34 0 9 Z " fill="#E99A2B" transform="translate(154,154)"/>
<path d="M0 0 C1.29608947 0.93137592 2.58671632 1.8703566 3.875 2.8125 C4.95394531 3.59560547 4.95394531 3.59560547 6.0546875 4.39453125 C8 6 8 6 10 9 C9.01 9 8.02 9 7 9 C7 8.34 7 7.68 7 7 C2.02093741 6.24572703 2.02093741 6.24572703 -3 6 C-4.6875 4.5 -4.6875 4.5 -6 3 C-4.02 2.01 -2.04 1.02 0 0 Z " fill="#E7A427" transform="translate(142,41)"/>
<path d="M0 0 C1.65 0 3.3 0 5 0 C5 0.66 5 1.32 5 2 C10.28 2 15.56 2 21 2 C21 2.33 21 2.66 21 3 C19.85660156 3.12117188 18.71320313 3.24234375 17.53515625 3.3671875 C16.04421583 3.53597321 14.55333327 3.70527047 13.0625 3.875 C12.30775391 3.95363281 11.55300781 4.03226563 10.77539062 4.11328125 C8.84080701 4.33883808 6.91823981 4.66258974 5 5 C4.67 5.66 4.34 6.32 4 7 C2.35 6.67 0.7 6.34 -1 6 C-0.01 5.34 0.98 4.68 2 4 C0.35 4 -1.3 4 -3 4 C-3 3.34 -3 2.68 -3 2 C-2.01 2 -1.02 2 0 2 C0 1.34 0 0.68 0 0 Z " fill="#040208" transform="translate(67,30)"/>
<path d="M0 0 C0.66 0.33 1.32 0.66 2 1 C0.64075883 5.44842565 -1.27221998 7.29735949 -5 10 C-5.66 10.66 -6.32 11.32 -7 12 C-7.66 11.67 -8.32 11.34 -9 11 C-9.33 12.32 -9.66 13.64 -10 15 C-10.66 14.67 -11.32 14.34 -12 14 C-12 12.02 -12 10.04 -12 8 C-11.67 8.66 -11.34 9.32 -11 10 C-9.68 9.34 -8.36 8.68 -7 8 C-7 7.34 -7 6.68 -7 6 C-6.01 6 -5.02 6 -4 6 C-3.71125 5.195625 -3.4225 4.39125 -3.125 3.5625 C-2 1 -2 1 0 0 Z " fill="#DD9329" transform="translate(175,90)"/>
<path d="M0 0 C0.66 0 1.32 0 2 0 C2.33 2.64 2.66 5.28 3 8 C2.01 8.495 2.01 8.495 1 9 C0.608125 8.34 0.21625 7.68 -0.1875 7 C-1.85416667 4.70833333 -1.85416667 4.70833333 -4.6875 4.75 C-5.8321875 4.87375 -5.8321875 4.87375 -7 5 C-6.34 7.97 -5.68 10.94 -5 14 C-6.32 13.34 -7.64 12.68 -9 12 C-9.25 5.375 -9.25 5.375 -7 2 C-3.375 1.8125 -3.375 1.8125 0 2 C0 1.34 0 0.68 0 0 Z " fill="#E2A32D" transform="translate(100,82)"/>
<path d="M0 0 C4.8274799 1.41292095 8.7162359 3.42974154 13 6 C12.01 6.33 11.02 6.66 10 7 C9.34 6.67 8.68 6.34 8 6 C7.67 6.99 7.34 7.98 7 9 C4.9375 10.1875 4.9375 10.1875 3 11 C2.34 10.34 1.68 9.68 1 9 C1.99 8.67 2.98 8.34 4 8 C3.25621612 5.02329237 3.25621612 5.02329237 1.4375 3.4375 C0.963125 2.963125 0.48875 2.48875 0 2 C0 1.34 0 0.68 0 0 Z " fill="#252421" transform="translate(180,45)"/>
<path d="M0 0 C0.66 0.66 1.32 1.32 2 2 C2.66 1.67 3.32 1.34 4 1 C4 4.3 4 7.6 4 11 C3.01 11 2.02 11 1 11 C0.67 11.66 0.34 12.32 0 13 C-1.5625 12 -1.5625 12 -3 10 C-3.06745073 7.25138256 -2.74713966 4.64588557 -2 2 C-1.34 1.34 -0.68 0.68 0 0 Z " fill="#030403" transform="translate(55,157)"/>
<path d="M0 0 C11.125 9.09375 11.125 9.09375 12 15 C11.34 15 10.68 15 10 15 C10 14.34 10 13.68 10 13 C8.35 12.67 6.7 12.34 5 12 C4.71125 11.030625 4.4225 10.06125 4.125 9.0625 C3.35785318 5.89335797 3.35785318 5.89335797 1 5 C0.375 2.4375 0.375 2.4375 0 0 Z " fill="#D68D2E" transform="translate(184,56)"/>
<path d="M0 0 C0.66 1.32 1.32 2.64 2 4 C2.66 4 3.32 4 4 4 C4 4.66 4 5.32 4 6 C3.34 6 2.68 6 2 6 C2 7.32 2 8.64 2 10 C1.01 9.67 0.02 9.34 -1 9 C-0.67 7.68 -0.34 6.36 0 5 C-2.97 5.66 -5.94 6.32 -9 7 C-8.67 5.68 -8.34 4.36 -8 3 C-2.96428571 0 -2.96428571 0 0 0 Z " fill="#F3B033" transform="translate(48,53)"/>
<path d="M0 0 C0.66 0.66 1.32 1.32 2 2 C-0.29015544 6.84455959 -0.29015544 6.84455959 -2 9 C-5.25 9.9375 -5.25 9.9375 -8 10 C-8.33 8.68 -8.66 7.36 -9 6 C-6.03 4.02 -3.06 2.04 0 0 Z " fill="#120C0B" transform="translate(182,104)"/>
<path d="M0 0 C1.40907283 2.81814566 0.50872691 4.17277204 -0.4375 7.125 C-0.72496094 8.03507812 -1.01242188 8.94515625 -1.30859375 9.8828125 C-1.53675781 10.58148438 -1.76492187 11.28015625 -2 12 C-2.66 11.01 -3.32 10.02 -4 9 C-4.99 9 -5.98 9 -7 9 C-7 8.34 -7 7.68 -7 7 C-7.99 7.33 -8.98 7.66 -10 8 C-10.33 7.01 -10.66 6.02 -11 5 C-10.01 5 -9.02 5 -8 5 C-7.67 3.68 -7.34 2.36 -7 1 C-6.896875 1.639375 -6.79375 2.27875 -6.6875 2.9375 C-6.460625 3.618125 -6.23375 4.29875 -6 5 C-5.01 5.33 -4.02 5.66 -3 6 C-2.67 5.34 -2.34 4.68 -2 4 C-2.66 3.67 -3.32 3.34 -4 3 C-3.34 3 -2.68 3 -2 3 C-2 2.34 -2 1.68 -2 1 C-1.34 0.67 -0.68 0.34 0 0 Z " fill="#EEA61C" transform="translate(151,88)"/>
<path d="M0 0 C3.30121745 3.30121745 3.91923926 6.93348314 4.265625 11.5078125 C4.26046875 12.70148438 4.2553125 13.89515625 4.25 15.125 C4.25515625 16.32382813 4.2603125 17.52265625 4.265625 18.7578125 C4 22 4 22 2 26 C2 20.72 2 15.44 2 10 C0.68 9.34 -0.64 8.68 -2 8 C-1.47731534 5.23723823 -0.89130413 2.6739124 0 0 Z " fill="#484848" transform="translate(202,64)"/>
<path d="M0 0 C0.91007812 0.00902344 1.82015625 0.01804688 2.7578125 0.02734375 C3.45648438 0.03894531 4.15515625 0.05054688 4.875 0.0625 C4.875 1.0525 4.875 2.0425 4.875 3.0625 C1.99084117 4.50457941 -0.54221528 4.15644887 -3.75 4.125 C-4.93851562 4.11597656 -6.12703125 4.10695313 -7.3515625 4.09765625 C-8.26679687 4.08605469 -9.18203125 4.07445312 -10.125 4.0625 C-9.135 3.7325 -8.145 3.4025 -7.125 3.0625 C-7.125 2.4025 -7.125 1.7425 -7.125 1.0625 C-4.60024538 -0.19987731 -2.81299534 -0.03606404 0 0 Z " fill="#FAD187" transform="translate(77.125,41.9375)"/>
<path d="M0 0 C2.10618396 0.55751928 3.81884536 1 6 1 C6.33 0.34 6.66 -0.32 7 -1 C7 0.32 7 1.64 7 3 C5 4.75 5 4.75 3 6 C1.68 5.34 0.36 4.68 -1 4 C-1 3.34 -1 2.68 -1 2 C-3.64 2 -6.28 2 -9 2 C-4.16326531 -1.2244898 -4.16326531 -1.2244898 0 0 Z " fill="#0F0806" transform="translate(169,173)"/>
<path d="M0 0 C0.33 0.99 0.66 1.98 1 3 C2.18078125 2.7834375 3.3615625 2.566875 4.578125 2.34375 C6.13538373 2.0623177 7.69267724 1.78107777 9.25 1.5 C10.02730469 1.35691406 10.80460937 1.21382812 11.60546875 1.06640625 C12.35957031 0.93105469 13.11367187 0.79570312 13.890625 0.65625 C14.92751465 0.46772461 14.92751465 0.46772461 15.98535156 0.27539062 C18 0 18 0 22 0 C22.33 1.32 22.66 2.64 23 4 C21.84242187 3.98839844 20.68484375 3.97679687 19.4921875 3.96484375 C17.95312662 3.95545923 16.41406399 3.94635974 14.875 3.9375 C14.11445312 3.92912109 13.35390625 3.92074219 12.5703125 3.91210938 C8.2610356 3.89353491 4.24483526 4.13882735 0 5 C0 3.35 0 1.7 0 0 Z " fill="#201510" transform="translate(62,144)"/>
<path d="M0 0 C0.33 0 0.66 0 1 0 C1 4.95 1 9.9 1 15 C1.66 15 2.32 15 3 15 C3.33 14.34 3.66 13.68 4 13 C6 16 6 16 6 19 C3.625 18.75 3.625 18.75 1 18 C-1.27101095 14.72050622 -1.24029419 11.78176986 -1.1875 7.875 C-1.18105469 6.82054688 -1.17460937 5.76609375 -1.16796875 4.6796875 C-1 2 -1 2 0 0 Z " fill="#F2AD24" transform="translate(29,74)"/>
<path d="M0 0 C1.32 0 2.64 0 4 0 C3.67 5.61 3.34 11.22 3 17 C2.67 17 2.34 17 2 17 C1.67 13.7 1.34 10.4 1 7 C0.34 7 -0.32 7 -1 7 C-1.04254356 5.00045254 -1.04080783 2.99958364 -1 1 C-0.67 0.67 -0.34 0.34 0 0 Z " fill="#262322" transform="translate(128,105)"/>
<path d="M0 0 C0.99 0.33 1.98 0.66 3 1 C2.67 3.97 2.34 6.94 2 10 C2.99 10.33 3.98 10.66 5 11 C4.67 13.64 4.34 16.28 4 19 C1.03 19 -1.94 19 -5 19 C-5 18.67 -5 18.34 -5 18 C-2.36 18 0.28 18 3 18 C2.38722388 15.03824877 1.74627478 13.61941217 0 11 C-0.44921875 8.80859375 -0.44921875 8.80859375 -0.6875 6.4375 C-0.77386719 5.65246094 -0.86023438 4.86742188 -0.94921875 4.05859375 C-1 2 -1 2 0 0 Z " fill="#C48C38" transform="translate(161,106)"/>
<path d="M0 0 C0.66 0.33 1.32 0.66 2 1 C1.88610125 2.79240663 1.75852313 4.58394835 1.625 6.375 C1.55539063 7.37273437 1.48578125 8.37046875 1.4140625 9.3984375 C1 12 1 12 -1 14 C-1.33 13.34 -1.66 12.68 -2 12 C-2.33 13.32 -2.66 14.64 -3 16 C-3.66 16 -4.32 16 -5 16 C-4.54762239 14.08191891 -4.08785537 12.16557967 -3.625 10.25 C-3.24214844 8.64898437 -3.24214844 8.64898437 -2.8515625 7.015625 C-2.12466459 4.44147278 -1.2973776 2.32399814 0 0 Z " fill="#190F0C" transform="translate(130,84)"/>
<path d="M0 0 C-0.14107747 1.45880109 -0.28802415 2.91703551 -0.4375 4.375 C-0.51871094 5.18710938 -0.59992188 5.99921875 -0.68359375 6.8359375 C-1 9 -1 9 -2 11 C-4.64 11 -7.28 11 -10 11 C-9.0409375 10.7215625 -9.0409375 10.7215625 -8.0625 10.4375 C-7.381875 9.963125 -6.70125 9.48875 -6 9 C-5.62599214 6.67284 -5.29235267 4.33882138 -5 2 C-2 0 -2 0 0 0 Z " fill="#E89131" transform="translate(142,110)"/>
<path d="M0 0 C0.33 0.66 0.66 1.32 1 2 C2.65 1.34 4.3 0.68 6 0 C6.66 0.66 7.32 1.32 8 2 C6.21475351 3.19713017 4.4215972 4.38247279 2.625 5.5625 C1.12839844 6.55443359 1.12839844 6.55443359 -0.3984375 7.56640625 C-1.25695312 8.03949219 -2.11546875 8.51257813 -3 9 C-3.66 8.67 -4.32 8.34 -5 8 C-4.34 6.35 -3.68 4.7 -3 3 C-2.34 3 -1.68 3 -1 3 C-0.67 2.01 -0.34 1.02 0 0 Z " fill="#343434" transform="translate(181,109)"/>
<path d="M0 0 C11.52164009 -0.3690205 11.52164009 -0.3690205 17 2 C16.67 2.66 16.34 3.32 16 4 C14.04196493 4.05389087 12.08351091 4.09274217 10.125 4.125 C9.03445312 4.14820313 7.94390625 4.17140625 6.8203125 4.1953125 C4 4 4 4 2 2 C4.97 2.495 4.97 2.495 8 3 C8 2.34 8 1.68 8 1 C5.36 1 2.72 1 0 1 C0 0.67 0 0.34 0 0 Z " fill="#E3A12E" transform="translate(162,51)"/>
<path d="M0 0 C0.433125 0.495 0.86625 0.99 1.3125 1.5 C2.99740483 3.33218192 2.99740483 3.33218192 6 3 C6.33 2.01 6.66 1.02 7 0 C8.2077558 3.62326739 7.54311128 4.64146369 6 8 C5.34 8 4.68 8 4 8 C3.34 10.64 2.68 13.28 2 16 C1.67 16 1.34 16 1 16 C1.33 12.7 1.66 9.4 2 6 C1.34 6 0.68 6 0 6 C0 4.02 0 2.04 0 0 Z " fill="#F3AC2F" transform="translate(120,88)"/>
<path d="M0 0 C1.98 1.65 3.96 3.3 6 5 C5.34 6.32 4.68 7.64 4 9 C3.34 9 2.68 9 2 9 C1.67 10.32 1.34 11.64 1 13 C0.34 12.34 -0.32 11.68 -1 11 C-0.625 7.375 -0.625 7.375 0 4 C-0.66 3.67 -1.32 3.34 -2 3 C-1.34 3 -0.68 3 0 3 C0 2.01 0 1.02 0 0 Z " fill="#252323" transform="translate(152,38)"/>
<path d="M0 0 C1.65 0 3.3 0 5 0 C5.66 5.28 6.32 10.56 7 16 C6.01 16.33 5.02 16.66 4 17 C2.99890485 13.68929162 2.89643866 10.69915231 2.9375 7.25 C2.94652344 6.26515625 2.95554688 5.2803125 2.96484375 4.265625 C2.97644531 3.51796875 2.98804688 2.7703125 3 2 C2.01 2.495 2.01 2.495 1 3 C0.67 2.01 0.34 1.02 0 0 Z " fill="#CC8633" transform="translate(162,155)"/>
<path d="M0 0 C1.32 0 2.64 0 4 0 C4 0.66 4 1.32 4 2 C4.99 2.33 5.98 2.66 7 3 C6.01 3.33 5.02 3.66 4 4 C4.66 4.66 5.32 5.32 6 6 C6 6.99 6 7.98 6 9 C6.33 9.99 6.66 10.98 7 12 C6.0625 14.1875 6.0625 14.1875 5 16 C4.67 13.36 4.34 10.72 4 8 C2.35 8.33 0.7 8.66 -1 9 C-0.34 7.02 0.32 5.04 1 3 C1.66 3 2.32 3 3 3 C3 2.34 3 1.68 3 1 C2.01 1.33 1.02 1.66 0 2 C0 1.34 0 0.68 0 0 Z " fill="#E7A222" transform="translate(49,56)"/>
<path d="M0 0 C0.99 0.33 1.98 0.66 3 1 C2.34 1 1.68 1 1 1 C1 1.66 1 2.32 1 3 C4.3 3.33 7.6 3.66 11 4 C11 4.33 11 4.66 11 5 C9.87851563 5.14695312 9.87851563 5.14695312 8.734375 5.296875 C2.58820798 6.1242422 2.58820798 6.1242422 -2.6875 9.125 C-3.120625 9.74375 -3.55375 10.3625 -4 11 C-4 9.68 -4 8.36 -4 7 C-3.34 7 -2.68 7 -2 7 C-2.99 5.68 -3.98 4.36 -5 3 C-2.6875 1.4375 -2.6875 1.4375 0 0 Z " fill="#F7CA6D" transform="translate(69,42)"/>
<path d="M0 0 C1.32 0 2.64 0 4 0 C5.36952673 2.73905345 5.12621361 4.97087332 5 8 C4.67 8.66 4.34 9.32 4 10 C5.32 10.33 6.64 10.66 8 11 C6.02 11 4.04 11 2 11 C1.34 7.37 0.68 3.74 0 0 Z " fill="#E0A536" transform="translate(83,112)"/>
<path d="M0 0 C0.99 0 1.98 0 3 0 C3.33 3.63 3.66 7.26 4 11 C3.01 10.01 2.02 9.02 1 8 C0.01 8.33 -0.98 8.66 -2 9 C-2 6.69 -2 4.38 -2 2 C-1.34 2 -0.68 2 0 2 C0 1.34 0 0.68 0 0 Z " fill="#030203" transform="translate(57,72)"/>
<path d="M0 0 C0 0.99 0 1.98 0 3 C-2.06242617 3.02717692 -4.12495703 3.0464758 -6.1875 3.0625 C-7.33605469 3.07410156 -8.48460938 3.08570313 -9.66796875 3.09765625 C-12.59300586 3.01192832 -15.16316291 2.67849023 -18 2 C-18 1.67 -18 1.34 -18 1 C-11.60985973 -0.58444052 -6.49551291 -1.20287276 0 0 Z " fill="#F2AB18" transform="translate(88,156)"/>
<path d="M0 0 C-3.56505179 2.37670119 -5.75814828 2.48110533 -10 2.8125 C-11.2375 2.92207031 -12.475 3.03164062 -13.75 3.14453125 C-17 3 -17 3 -18.9375 1.51171875 C-19.4634375 0.76341797 -19.4634375 0.76341797 -20 0 C-17.22949974 -0.1946838 -14.45886998 -0.38102792 -11.6875 -0.5625 C-10.90181641 -0.61857422 -10.11613281 -0.67464844 -9.30664062 -0.73242188 C-8.1706543 -0.80493164 -8.1706543 -0.80493164 -7.01171875 -0.87890625 C-6.31522217 -0.9260376 -5.61872559 -0.97316895 -4.90112305 -1.02172852 C-3 -1 -3 -1 0 0 Z " fill="#020512" transform="translate(125,123)"/>
<path d="M0 0 C1.32 0 2.64 0 4 0 C4 0.99 4 1.98 4 3 C6.475 3.99 6.475 3.99 9 5 C8.67 6.32 8.34 7.64 8 9 C5.0625 8.1875 5.0625 8.1875 2 7 C1.67 6.01 1.34 5.02 1 4 C1.33 3.34 1.66 2.68 2 2 C1.34 2 0.68 2 0 2 C0 1.34 0 0.68 0 0 Z " fill="#080607" transform="translate(36,88)"/>
<path d="M0 0 C2.35358251 2.35358251 2.27871904 2.92968394 2.4140625 6.1328125 C2.45273437 6.93847656 2.49140625 7.74414062 2.53125 8.57421875 C2.5621875 9.41597656 2.593125 10.25773437 2.625 11.125 C2.66367187 11.97449219 2.70234375 12.82398437 2.7421875 13.69921875 C2.83656494 15.79911684 2.91937586 17.89952891 3 20 C2.34 20 1.68 20 1 20 C0.67 20.66 0.34 21.32 0 22 C-0.66 19.69 -1.32 17.38 -2 15 C-1.34 14.67 -0.68 14.34 0 14 C0 9.38 0 4.76 0 0 Z " fill="#F0AB12" transform="translate(49,66)"/>
<path d="M0 0 C-0.0625 1.75 -0.0625 1.75 -1 4 C-3.24164322 5.59501537 -5.53566643 6.74543018 -8 8 C-8.25 5.6875 -8.25 5.6875 -8 3 C-5.18144066 0.08077783 -4.20010777 0 0 0 Z " fill="#FBCA74" transform="translate(112,44)"/>
<path d="M0 0 C0.99 0 1.98 0 3 0 C2.69024532 1.77131561 2.37709575 3.54203778 2.0625 5.3125 C1.88847656 6.29863281 1.71445313 7.28476563 1.53515625 8.30078125 C1 11 1 11 0 14 C-2.31 14 -4.62 14 -7 14 C-7 13.34 -7 12.68 -7 12 C-5.02 12 -3.04 12 -1 12 C-1 9.03 -1 6.06 -1 3 C-0.34 3 0.32 3 1 3 C0.67 2.01 0.34 1.02 0 0 Z " fill="#C6873C" transform="translate(141,109)"/>
<path d="M0 0 C0.66 0 1.32 0 2 0 C2 2.64 2 5.28 2 8 C1.34 8 0.68 8 0 8 C0 8.66 0 9.32 0 10 C-0.66 10 -1.32 10 -2 10 C-2.33 11.32 -2.66 12.64 -3 14 C-2.88512252 12.41590006 -2.75765492 10.83271037 -2.625 9.25 C-2.55539063 8.36828125 -2.48578125 7.4865625 -2.4140625 6.578125 C-2.00149945 4.00933618 -1.28839043 2.24158985 0 0 Z " fill="#1E150D" transform="translate(57,64)"/>
<path d="M0 0 C0.33 0 0.66 0 1 0 C1.19392201 5.52677733 0.7479503 9.75614911 -1 15 C-1.99 14.67 -2.98 14.34 -4 14 C-3.67 11.36 -3.34 8.72 -3 6 C-2.01 6 -1.02 6 0 6 C0 4.02 0 2.04 0 0 Z " fill="#1F1B16" transform="translate(105,106)"/>
<path d="M0 0 C0.66 0.66 1.32 1.32 2 2 C-0.19179122 6.50534863 -2.35791133 8.16250657 -7 10 C-7.99 10 -8.98 10 -10 10 C-9.67 9.01 -9.34 8.02 -9 7 C-7.67696283 6.6278958 -6.34262065 6.29369827 -5 6 C-4.67 5.34 -4.34 4.68 -4 4 C-3.34 4 -2.68 4 -2 4 C-2 3.34 -2 2.68 -2 2 C-1.34 2 -0.68 2 0 2 C0 1.34 0 0.68 0 0 Z " fill="#E29627" transform="translate(145,102)"/>
<path d="M0 0 C2.1991413 4.39828259 2.51855059 7.18550592 3 12 C2.01 12.33 1.02 12.66 0 13 C0 12.01 0 11.02 0 10 C-0.66 10 -1.32 10 -2 10 C-1.34 6.7 -0.68 3.4 0 0 Z " fill="#0B050E" transform="translate(102,94)"/>
<path d="M0 0 C3.875 4.75 3.875 4.75 5 7 C3.02 7.99 3.02 7.99 1 9 C1 8.01 1 7.02 1 6 C0.34 5.67 -0.32 5.34 -1 5 C-0.67 3.35 -0.34 1.7 0 0 Z M-4 6 C-3.01 6.99 -2.02 7.98 -1 9 C-1.33 9.99 -1.66 10.98 -2 12 C-2.99 10.35 -3.98 8.7 -5 7 C-4.67 6.67 -4.34 6.34 -4 6 Z " fill="#211C17" transform="translate(29,90)"/>
<path d="M0 0 C4.75 0.75 4.75 0.75 7 3 C6.67 3.66 6.34 4.32 6 5 C6.99 5.33 7.98 5.66 9 6 C7.3125 6.6875 7.3125 6.6875 5 7 C2.25 5.8125 2.25 5.8125 0 4 C0 2.68 0 1.36 0 0 Z " fill="#050503" transform="translate(159,44)"/>
<path d="M0 0 C0.99 0.33 1.98 0.66 3 1 C2.34 1 1.68 1 1 1 C1.01160156 1.75925781 1.02320313 2.51851562 1.03515625 3.30078125 C1.04417969 4.29464844 1.05320313 5.28851563 1.0625 6.3125 C1.07410156 7.29863281 1.08570313 8.28476563 1.09765625 9.30078125 C1 12 1 12 0 15 C0.66 15 1.32 15 2 15 C2.33 15.99 2.66 16.98 3 18 C0.525 17.01 0.525 17.01 -2 16 C-1.34 10.72 -0.68 5.44 0 0 Z " fill="#C7942C" transform="translate(61,155)"/>
<path d="M0 0 C0.33 0 0.66 0 1 0 C1 4.29 1 8.58 1 13 C-2.3 12.67 -5.6 12.34 -9 12 C-6 10 -6 10 -1 10 C-0.67 6.7 -0.34 3.4 0 0 Z " fill="#CA8333" transform="translate(164,134)"/>
<path d="M0 0 C0 0.66 0 1.32 0 2 C-0.66 2 -1.32 2 -2 2 C-2.66 3.32 -3.32 4.64 -4 6 C-4.99 5.67 -5.98 5.34 -7 5 C-7 4.01 -7 3.02 -7 2 C-7.66 1.67 -8.32 1.34 -9 1 C-2.25 -1.125 -2.25 -1.125 0 0 Z " fill="#262625" transform="translate(52,44)"/>
<path d="M0 0 C1.65 1.65 3.3 3.3 5 5 C4.01 6.98 3.02 8.96 2 11 C1.34 10.67 0.68 10.34 0 10 C-1.11421833 6.35346727 -0.94296589 3.66708957 0 0 Z " fill="#282828" transform="translate(51,165)"/>
<path d="M0 0 C2 2 2 2 2.23046875 4.3125 C2.21628906 5.199375 2.20210937 6.08625 2.1875 7 C2.18105469 7.886875 2.17460937 8.77375 2.16796875 9.6875 C2 12 2 12 1 14 C0.34 14 -0.32 14 -1 14 C-1.08333357 9.1666528 -0.95261487 4.76307437 0 0 Z " fill="#C67E2D" transform="translate(196,72)"/>
<path d="M0 0 C1.5 1.25 1.5 1.25 3 3 C3 4.32 3 5.64 3 7 C0.66666667 7 -1.66666667 7 -4 7 C-4 7.66 -4 8.32 -4 9 C-4.99 8.67 -5.98 8.34 -7 8 C-6.34 8 -5.68 8 -5 8 C-4.731875 7.4225 -4.46375 6.845 -4.1875 6.25 C-2.98280141 3.9674132 -1.59201885 2.0262058 0 0 Z " fill="#E5A52E" transform="translate(100,40)"/>
<path d="M0 0 C2.6015625 -0.29296875 2.6015625 -0.29296875 5.625 -0.1875 C7.12933594 -0.14689453 7.12933594 -0.14689453 8.6640625 -0.10546875 C9.43492188 -0.07066406 10.20578125 -0.03585938 11 0 C11 0.66 11 1.32 11 2 C8.00519083 2.8723412 5.36424089 3.10829766 2.25 3.0625 C1.45078125 3.05347656 0.6515625 3.04445312 -0.171875 3.03515625 C-0.77515625 3.02355469 -1.3784375 3.01195312 -2 3 C-1.34 2.01 -0.68 1.02 0 0 Z " fill="#FAD185" transform="translate(117,40)"/>
<path d="M0 0 C6.11090483 -0.09945415 11.97403427 -0.0712828 18 1 C18 1.33 18 1.66 18 2 C12.72 2 7.44 2 2 2 C2 2.66 2 3.32 2 4 C1.01 3.67 0.02 3.34 -1 3 C-0.67 2.01 -0.34 1.02 0 0 Z " fill="#F4A517" transform="translate(112,37)"/>
<path d="M0 0 C1.6396875 0.2475 1.6396875 0.2475 3.3125 0.5 C6.87525873 1.06718184 6.87525873 1.06718184 10 1 C10.33 1.99 10.66 2.98 11 4 C10.34 4 9.68 4 9 4 C8.67 4.66 8.34 5.32 8 6 C6.66402348 5.19185349 5.331275 4.37836819 4 3.5625 C3.2575 3.11003906 2.515 2.65757813 1.75 2.19140625 C1.1725 1.79824219 0.595 1.40507813 0 1 C0 0.67 0 0.34 0 0 Z " fill="#212123" transform="translate(40,111)"/>
<path d="M0 0 C0.66 0 1.32 0 2 0 C1.67 2.97 1.34 5.94 1 9 C1.66 9.33 2.32 9.66 3 10 C1.125 10.625 1.125 10.625 -1 11 C-1.66 10.34 -2.32 9.68 -3 9 C-2.67582137 5.19090105 -2.14418558 3.21627837 0 0 Z " fill="#171111" transform="translate(91,38)"/>
<path d="M0 0 C2.31 0 4.62 0 7 0 C7 1.65 7 3.3 7 5 C5.3733152 4.71788123 3.74867104 4.42397625 2.125 4.125 C0.76761719 3.88136719 0.76761719 3.88136719 -0.6171875 3.6328125 C-3 3 -3 3 -5 1 C-2.525 1.495 -2.525 1.495 0 2 C0 1.34 0 0.68 0 0 Z " fill="#060202" transform="translate(141,36)"/>
<path d="M0 0 C0.33 0.66 0.66 1.32 1 2 C3.52733235 2.65555119 3.52733235 2.65555119 6 3 C5.01 3.495 5.01 3.495 4 4 C4 4.66 4 5.32 4 6 C2.125 6.625 2.125 6.625 0 7 C-2.1385485 4.8614515 -2.42655063 3.86724686 -3 1 C-2.01 0.67 -1.02 0.34 0 0 Z " fill="#2C2C2B" transform="translate(91,28)"/>
<path d="M0 0 C0.99 0.66 1.98 1.32 3 2 C4.33568021 1.67619874 5.66923011 1.34342449 7 1 C7.66 1.66 8.32 2.32 9 3 C5.87348943 4.85274701 3.62826895 5.45353362 0 5 C-2.3125 3.5 -2.3125 3.5 -4 2 C-2.68 1.34 -1.36 0.68 0 0 Z " fill="#1A191A" transform="translate(161,177)"/>
<path d="M0 0 C2 4 2 4 2 6 C2.66 6 3.32 6 4 6 C4 8.64 4 11.28 4 14 C3.67 14 3.34 14 3 14 C2.67 12.02 2.34 10.04 2 8 C1.87625 8.78375 1.7525 9.5675 1.625 10.375 C1 13 1 13 -1 15 C-0.67 10.05 -0.34 5.1 0 0 Z " fill="#3F3C45" transform="translate(53,150)"/>
<path d="M0 0 C0 0.99 0 1.98 0 3 C-2.97 3.66 -5.94 4.32 -9 5 C-9 3.68 -9 2.36 -9 1 C-5.92677456 0.08941469 -3.19902639 -0.08886184 0 0 Z " fill="#F2A81B" transform="translate(73,121)"/>
<path d="M0 0 C1 2 1 2 0.5 3.875 C-0.06796534 6.28885269 0.25055468 7.66839233 1 10 C0.21625 9.814375 -0.5675 9.62875 -1.375 9.4375 C-3.97089775 8.74037734 -3.97089775 8.74037734 -6 10 C-4.6302836 6.00499382 -2.74277578 3.19990508 0 0 Z " fill="#1C0D0A" transform="translate(170,99)"/>
<path d="M0 0 C3.82097239 0.53069061 6.06171403 1.49701566 9 4 C2.375 5.125 2.375 5.125 -1 4 C-0.67 2.68 -0.34 1.36 0 0 Z " fill="#353536" transform="translate(134,28)"/>
<path d="M0 0 C1.76953872 6.80701587 0.37486516 11.51152911 -2 18 C-2.33 18 -2.66 18 -3 18 C-3.36517527 11.42684522 -2.13619737 6.20514474 0 0 Z " fill="#D49B34" transform="translate(135,91)"/>
<path d="M0 0 C0.33 0 0.66 0 1 0 C1 1.98 1 3.96 1 6 C1.99 6.33 2.98 6.66 4 7 C4 10 4 10 3 13 C2.01 13 1.02 13 0 13 C0.2784375 12.0409375 0.2784375 12.0409375 0.5625 11.0625 C0.706875 10.381875 0.85125 9.70125 1 9 C0.67 8.67 0.34 8.34 0 8 C-0.14115161 5.32941149 -0.04247107 2.67567762 0 0 Z " fill="#F6B237" transform="translate(31,72)"/>
<path d="M0 0 C0.33 0 0.66 0 1 0 C1.66 2.64 2.32 5.28 3 8 C2.34 8 1.68 8 1 8 C1 8.99 1 9.98 1 11 C1.99 11 2.98 11 4 11 C3.67 12.32 3.34 13.64 3 15 C2.01 15 1.02 15 0 15 C0 10.05 0 5.1 0 0 Z " fill="#E69E22" transform="translate(30,74)"/>
<path d="M0 0 C0 0.33 0 0.66 0 1 C-2.64 1 -5.28 1 -8 1 C-8 0.34 -8 -0.32 -8 -1 C-8.99 -0.67 -9.98 -0.34 -11 0 C-12.39439664 0.06665376 -13.79169875 0.08538199 -15.1875 0.0625 C-17.0746875 0.0315625 -17.0746875 0.0315625 -19 0 C-19 -0.33 -19 -0.66 -19 -1 C-12.27464693 -2.09801683 -6.29791146 -3.05353283 0 0 Z " fill="#E3A432" transform="translate(88,134)"/>
<path d="M0 0 C1.65 0 3.3 0 5 0 C4.67 2.64 4.34 5.28 4 8 C3.566875 7.525625 3.13375 7.05125 2.6875 6.5625 C0.97690387 4.76313043 0.97690387 4.76313043 -2 4 C-2 3.34 -2 2.68 -2 2 C-1.34 2 -0.68 2 0 2 C0 1.34 0 0.68 0 0 Z " fill="#F8B02B" transform="translate(74,91)"/>
<path d="M0 0 C0.33 1.65 0.66 3.3 1 5 C-0.98 5.99 -0.98 5.99 -3 7 C-2.67 5.35 -2.34 3.7 -2 2 C-2.99 2.33 -3.98 2.66 -5 3 C-5.33 2.01 -5.66 1.02 -6 0 C-3.50907189 -1.24546405 -2.58919267 -0.7767578 0 0 Z " fill="#1F1611" transform="translate(190,81)"/>
<path d="M0 0 C-1.32 0.33 -2.64 0.66 -4 1 C-4.33 2.65 -4.66 4.3 -5 6 C-5.99 5.67 -6.98 5.34 -8 5 C-7.34 5 -6.68 5 -6 5 C-6 4.01 -6 3.02 -6 2 C-9.3 2 -12.6 2 -16 2 C-16 1.67 -16 1.34 -16 1 C-13.8973294 0.63705686 -11.79278943 0.28493028 -9.6875 -0.0625 C-8.51574219 -0.25972656 -7.34398438 -0.45695312 -6.13671875 -0.66015625 C-3 -1 -3 -1 0 0 Z " fill="#F6BB4D" transform="translate(88,40)"/>
<path d="M0 0 C0 0.66 0 1.32 0 2 C-3.78187881 3.83691257 -5.94568308 4.15837626 -10 3 C-9.01 2.67 -8.02 2.34 -7 2 C-7 1.34 -7 0.68 -7 0 C-3.86650268 -1.04449911 -3.01031744 -0.93423645 0 0 Z " fill="#160D05" transform="translate(140,33)"/>
<path d="M0 0 C0.80050781 0.03480469 1.60101563 0.06960937 2.42578125 0.10546875 C3.63814453 0.14607422 3.63814453 0.14607422 4.875 0.1875 C5.48988281 0.22230469 6.10476562 0.25710937 6.73828125 0.29296875 C7.06828125 0.95296875 7.39828125 1.61296875 7.73828125 2.29296875 C1.30328125 2.78796875 1.30328125 2.78796875 -5.26171875 3.29296875 C-2.26171875 0.29296875 -2.26171875 0.29296875 0 0 Z " fill="#120F0B" transform="translate(96.26171875,148.70703125)"/>
<path d="M0 0 C0 3 0 3 -1 5 C-0.34 5.33 0.32 5.66 1 6 C-1.97 7.65 -4.94 9.3 -8 11 C-6.4005386 7.80107719 -5.17187081 5.84646265 -2.875 3.25 C-2.33617187 2.63640625 -1.79734375 2.0228125 -1.2421875 1.390625 C-0.62730469 0.70226562 -0.62730469 0.70226562 0 0 Z " fill="#CA8939" transform="translate(180,100)"/>
<path d="M0 0 C0.66 0.33 1.32 0.66 2 1 C1.34 4.63 0.68 8.26 0 12 C-2.79921583 7.80117625 -1.86558093 5.87872887 -1 1 C-0.67 0.67 -0.34 0.34 0 0 Z " fill="#E09B26" transform="translate(124,95)"/>
<path d="M0 0 C3.3 0 6.6 0 10 0 C10.33 0.99 10.66 1.98 11 3 C7.37 2.67 3.74 2.34 0 2 C0 1.34 0 0.68 0 0 Z " fill="#160B05" transform="translate(92,143)"/>
<path d="M0 0 C0.33 0 0.66 0 1 0 C1.14285714 8.57142857 1.14285714 8.57142857 0 12 C-0.66 12 -1.32 12 -2 12 C-2.28571429 3.42857143 -2.28571429 3.42857143 0 0 Z " fill="#050403" transform="translate(57,136)"/>
<path d="M0 0 C1.31223496 3.93670488 0.24296256 6.12488144 -1 10 C-1.66 10 -2.32 10 -3 10 C-3 9.34 -3 8.68 -3 8 C-3.66 8 -4.32 8 -5 8 C-4.67 7.01 -4.34 6.02 -4 5 C-3.34 4.67 -2.68 4.34 -2 4 C-0.86649466 1.98330173 -0.86649466 1.98330173 0 0 Z " fill="#160F16" transform="translate(150,112)"/>
<path d="M0 0 C0.99 0 1.98 0 3 0 C3 3.3 3 6.6 3 10 C0.03 9.505 0.03 9.505 -3 9 C-2.01 8.67 -1.02 8.34 0 8 C0 5.36 0 2.72 0 0 Z " fill="#D2A138" transform="translate(96,112)"/>
<path d="M0 0 C1.125 3.75 1.125 3.75 0 6 C-0.66 6 -1.32 6 -2 6 C-2.33 8.97 -2.66 11.94 -3 15 C-3.33 15 -3.66 15 -4 15 C-4.05447047 13.58376784 -4.09300508 12.16691809 -4.125 10.75 C-4.14820312 9.96109375 -4.17140625 9.1721875 -4.1953125 8.359375 C-3.9828378 5.79268059 -3.28654105 4.2083933 -2 2 C-1.34 2 -0.68 2 0 2 C0 1.34 0 0.68 0 0 Z " fill="#CE982A" transform="translate(31,68)"/>
<path d="M0 0 C1.65 0.33 3.3 0.66 5 1 C5 1.99 5 2.98 5 4 C2.36 4.66 -0.28 5.32 -3 6 C-3.33 5.01 -3.66 4.02 -4 3 C-3.01 2.67 -2.02 2.34 -1 2 C-0.67 1.34 -0.34 0.68 0 0 Z " fill="#060403" transform="translate(188,51)"/>
<path d="M0 0 C0.33 1.32 0.66 2.64 1 4 C0.01 4.495 0.01 4.495 -1 5 C-1.33 5.99 -1.66 6.98 -2 8 C-3.32 7.34 -4.64 6.68 -6 6 C-4 4 -2 2 0 0 Z " fill="#353535" transform="translate(39,46)"/>
<path d="M0 0 C0.99 0.33 1.98 0.66 3 1 C3.66 0.67 4.32 0.34 5 0 C5 1.32 5 2.64 5 4 C1.78571429 7 1.78571429 7 -1 7 C-0.67 4.69 -0.34 2.38 0 0 Z " fill="#020208" transform="translate(147,103)"/>
<path d="M0 0 C0.99 0.33 1.98 0.66 3 1 C1.25 6.75 1.25 6.75 -1 9 C-1.80967438 6.08517222 -2.21845993 4.53886783 -1.0625 1.6875 C-0.711875 1.130625 -0.36125 0.57375 0 0 Z " fill="#303030" transform="translate(201,90)"/>
<path d="M0 0 C0.99 0.33 1.98 0.66 3 1 C2.67 2.65 2.34 4.3 2 6 C0.68 6 -0.64 6 -2 6 C-2 4.35 -2 2.7 -2 1 C-1.34 0.67 -0.68 0.34 0 0 Z " fill="#180E0A" transform="translate(95,86)"/>
<path d="M0 0 C0.99 0.33 1.98 0.66 3 1 C3.33 2.65 3.66 4.3 4 6 C4.66 6 5.32 6 6 6 C5.67 6.99 5.34 7.98 5 9 C0.125 4.375 0.125 4.375 -1 1 C-0.67 0.67 -0.34 0.34 0 0 Z " fill="#E2A029" transform="translate(67,85)"/>
<path d="M0 0 C2.56957396 1.80703206 4.9456142 3.61217986 7 6 C6.9375 9.375 6.9375 9.375 6 12 C4 9 4 9 3 6 C2.34 5.67 1.68 5.34 1 5 C0.375 2.4375 0.375 2.4375 0 0 Z " fill="#E4982F" transform="translate(184,56)"/>
<path d="M0 0 C2.6875 0.3125 2.6875 0.3125 5 1 C5 1.99 5 2.98 5 4 C2.125 4.625 2.125 4.625 -1 5 C-1.66 4.34 -2.32 3.68 -3 3 C-1.8125 1.4375 -1.8125 1.4375 0 0 Z " fill="#F2AE18" transform="translate(91,49)"/>
<path d="M0 0 C2.64 0.33 5.28 0.66 8 1 C7.1875 2.9375 7.1875 2.9375 6 5 C5.01 5.33 4.02 5.66 3 6 C2.01 4.02 1.02 2.04 0 0 Z " fill="#333333" transform="translate(125,26)"/>
<path d="M0 0 C0.99 0.33 1.98 0.66 3 1 C3.75 2.9375 3.75 2.9375 4 5 C3.67 5.66 3.34 6.32 3 7 C2.01 7 1.02 7 0 7 C-0.66 5.02 -1.32 3.04 -2 1 C-1.34 0.67 -0.68 0.34 0 0 Z " fill="#E8A424" transform="translate(82,105)"/>
<path d="M0 0 C0.66 0.99 1.32 1.98 2 3 C2.99 3 3.98 3 5 3 C4.34 4.32 3.68 5.64 3 7 C3 6.34 3 5.68 3 5 C2.54625 5.495 2.0925 5.99 1.625 6.5 C0 8 0 8 -2 8 C-1.34 5.36 -0.68 2.72 0 0 Z " fill="#F6B029" transform="translate(56,91)"/>
<path d="M0 0 C0.99 0 1.98 0 3 0 C3 0.66 3 1.32 3 2 C3.66 2 4.32 2 5 2 C5 2.66 5 3.32 5 4 C5.99 4 6.98 4 8 4 C8 4.99 8 5.98 8 7 C8.66 7.33 9.32 7.66 10 8 C7 8 7 8 5.17578125 6.50390625 C4.56089844 5.86324219 3.94601563 5.22257812 3.3125 4.5625 C2.68988281 3.92441406 2.06726562 3.28632812 1.42578125 2.62890625 C0 1 0 1 0 0 Z " fill="#DCA336" transform="translate(43,89)"/>
<path d="M0 0 C2.31 0 4.62 0 7 0 C6.67 1.65 6.34 3.3 6 5 C4.02 4.34 2.04 3.68 0 3 C0 2.01 0 1.02 0 0 Z " fill="#F9AD26" transform="translate(48,90)"/>
<path d="M0 0 C2.40785992 3.2104799 3.68197635 5.35008834 5 9 C3.68 9.33 2.36 9.66 1 10 C0.67 6.7 0.34 3.4 0 0 Z " fill="#1C1004" transform="translate(62,79)"/>
<path d="M0 0 C0.66 0.66 1.32 1.32 2 2 C1.9375 4.5 1.9375 4.5 1 7 C-1.5625 8.3125 -1.5625 8.3125 -4 9 C-2.68 6.03 -1.36 3.06 0 0 Z " fill="#DC9F2C" transform="translate(57,47)"/>
<path d="M0 0 C0.99 0 1.98 0 3 0 C3.33 2.31 3.66 4.62 4 7 C3.01 7.495 3.01 7.495 2 8 C0.4375 6.8125 0.4375 6.8125 -1 5 C-0.6875 2.3125 -0.6875 2.3125 0 0 Z " fill="#040408" transform="translate(149,38)"/>
<path d="M0 0 C0 0.33 0 0.66 0 1 C-0.92232422 1.09087891 -0.92232422 1.09087891 -1.86328125 1.18359375 C-2.67152344 1.26738281 -3.47976562 1.35117187 -4.3125 1.4375 C-5.11300781 1.51871094 -5.91351563 1.59992187 -6.73828125 1.68359375 C-9.16087179 1.95265693 -9.16087179 1.95265693 -12 3 C-12.66 2.34 -13.32 1.68 -14 1 C-8.80451575 -1.20808081 -5.41735797 -0.93402724 0 0 Z " fill="#DB9D23" transform="translate(120,35)"/>
<path d="M0 0 C2.475 0.99 2.475 0.99 5 2 C3.60804085 4.7839183 1.84424221 4.97898997 -1 6 C-1.33 5.01 -1.66 4.02 -2 3 C-1.34 2.01 -0.68 1.02 0 0 Z " fill="#020203" transform="translate(172,169)"/>
<path d="M0 0 C1.19882813 0.15275391 1.19882813 0.15275391 2.421875 0.30859375 C3.02515625 0.39238281 3.6284375 0.47617188 4.25 0.5625 C4.25 0.8925 4.25 1.2225 4.25 1.5625 C-2.185 2.0575 -2.185 2.0575 -8.75 2.5625 C-8.75 1.9025 -8.75 1.2425 -8.75 0.5625 C-5.62819599 -0.40411363 -3.22916205 -0.42738909 0 0 Z " fill="#1D120C" transform="translate(88.75,129.4375)"/>
<path d="M0 0 C0.99 0.33 1.98 0.66 3 1 C2.91621094 1.62648438 2.83242187 2.25296875 2.74609375 2.8984375 C2.59333984 4.12433594 2.59333984 4.12433594 2.4375 5.375 C2.33308594 6.18710938 2.22867188 6.99921875 2.12109375 7.8359375 C1.81762672 10.04899186 1.81762672 10.04899186 3 12 C2.01 11.67 1.02 11.34 0 11 C-0.19491452 9.54263913 -0.38069358 8.08405407 -0.5625 6.625 C-0.66691406 5.81289062 -0.77132812 5.00078125 -0.87890625 4.1640625 C-1 2 -1 2 0 0 Z " fill="#D38E39" transform="translate(161,106)"/>
<path d="M0 0 C0.99 0.66 1.98 1.32 3 2 C2.34 2 1.68 2 1 2 C0.87625 2.94875 0.7525 3.8975 0.625 4.875 C0 8 0 8 -2 10 C-2.33 7.03 -2.66 4.06 -3 1 C-2.01 2.485 -2.01 2.485 -1 4 C-0.67 2.68 -0.34 1.36 0 0 Z " fill="#F9AF2A" transform="translate(91,94)"/>
<path d="M0 0 C0.33 0 0.66 0 1 0 C1.21278058 4.46839215 0.59138085 7.82262526 -1 12 C-2.32 11.67 -3.64 11.34 -5 11 C-4.360625 9.9275 -3.72125 8.855 -3.0625 7.75 C-1.59398727 5.19177818 -0.47145458 2.94659114 0 0 Z " fill="#1D1107" transform="translate(197,84)"/>
<path d="M0 0 C4.875 4.625 4.875 4.625 6 8 C4 8 4 8 2.375 6.5 C1.92125 6.005 1.4675 5.51 1 5 C0.01 5.495 0.01 5.495 -1 6 C-1.042721 4.33388095 -1.04063832 2.66617115 -1 1 C-0.67 0.67 -0.34 0.34 0 0 Z " fill="#D69C27" transform="translate(58,89)"/>
<path d="M0 0 C1.64350079 3.28700157 2.41321669 5.47930015 3 9 C1.68 9.33 0.36 9.66 -1 10 C-0.67 6.7 -0.34 3.4 0 0 Z " fill="#E4A32E" transform="translate(54,78)"/>
<path d="M0 0 C0.433125 0.9590625 0.433125 0.9590625 0.875 1.9375 C1.82823451 4.15206079 1.82823451 4.15206079 4 5 C3.01 5.33 2.02 5.66 1 6 C0.67 6.66 0.34 7.32 0 8 C-0.66 7.67 -1.32 7.34 -2 7 C-1.125 1.125 -1.125 1.125 0 0 Z " fill="#F6B743" transform="translate(103,47)"/>
<path d="M0 0 C0.33 0.66 0.66 1.32 1 2 C1.66 2.33 2.32 2.66 3 3 C0.03 5.475 0.03 5.475 -3 8 C-3.33 7.01 -3.66 6.02 -4 5 C-3.34 5 -2.68 5 -2 5 C-1.34 3.35 -0.68 1.7 0 0 Z " fill="#F1A816" transform="translate(67,105)"/>
<path d="M0 0 C0.33 0 0.66 0 1 0 C1 2.64 1 5.28 1 8 C-0.65 8 -2.3 8 -4 8 C-2.68 5.36 -1.36 2.72 0 0 Z " fill="#D48938" transform="translate(158,98)"/>
<path d="M0 0 C0 3.58045317 -0.80367515 4.29683095 -3 7 C-3.99 8.485 -3.99 8.485 -5 10 C-5.66 9.67 -6.32 9.34 -7 9 C-5.44499019 5.18315774 -2.96404505 2.80804268 0 0 Z " fill="#313131" transform="translate(58,34)"/>
<path d="M0 0 C0 0.99 0 1.98 0 3 C-4.01804691 3.84098656 -7.01803543 4.05404945 -11 3 C-11 2.67 -11 2.34 -11 2 C-9.5422647 1.664061 -8.08378894 1.33133376 -6.625 1 C-5.40683594 0.7215625 -5.40683594 0.7215625 -4.1640625 0.4375 C-2 0 -2 0 0 0 Z " fill="#201209" transform="translate(158,175)"/>
<path d="M0 0 C0.66 0.33 1.32 0.66 2 1 C0.9024777 3.99324263 0.32317108 4.84610901 -2.625 6.25 C-3.40875 6.4975 -4.1925 6.745 -5 7 C-4.67 6.01 -4.34 5.02 -4 4 C-3.34 4 -2.68 4 -2 4 C-2 3.34 -2 2.68 -2 2 C-1.34 2 -0.68 2 0 2 C0 1.34 0 0.68 0 0 Z " fill="#353437" transform="translate(175,172)"/>
<path d="M0 0 C2.09350689 3.4019487 2.17942163 6.05272412 2 10 C1.01 10.495 1.01 10.495 0 11 C-1.125 3.375 -1.125 3.375 0 0 Z " fill="#020604" transform="translate(59,117)"/>
<path d="M0 0 C2.75457718 0.37994168 3.82020574 0.8073633 5.75 2.875 C7 5 7 5 7 8 C6.34 8 5.68 8 5 8 C4.9175 7.21625 4.835 6.4325 4.75 5.625 C4.27193661 2.85250896 4.27193661 2.85250896 1.9375 1.6875 C1.298125 1.460625 0.65875 1.23375 0 1 C0 0.67 0 0.34 0 0 Z " fill="#10090E" transform="translate(35,100)"/>
<path d="M0 0 C1.32 0 2.64 0 4 0 C4.33 1.32 4.66 2.64 5 4 C4.34 4 3.68 4 3 4 C2.34 4.66 1.68 5.32 1 6 C1 5.34 1 4.68 1 4 C0.34 4 -0.32 4 -1 4 C-0.67 2.68 -0.34 1.36 0 0 Z " fill="#FCAF2C" transform="translate(45,85)"/>
<path d="M0 0 C0.66 0 1.32 0 2 0 C0.68775452 3.93673644 -0.91910327 6.22719294 -4 9 C-4.66 8.67 -5.32 8.34 -6 8 C-5.04956626 6.66102417 -4.08940853 5.32894573 -3.125 4 C-2.59132812 3.2575 -2.05765625 2.515 -1.5078125 1.75 C-1.01023438 1.1725 -0.51265625 0.595 0 0 Z " fill="#1A1011" transform="translate(182,85)"/>
<path d="M0 0 C0.99 0.33 1.98 0.66 3 1 C1.35 3.64 -0.3 6.28 -2 9 C-3 6 -3 6 -1.5625 2.8125 C-1.046875 1.884375 -0.53125 0.95625 0 0 Z " fill="#EBAA38" transform="translate(152,89)"/>
<path d="M0 0 C0.99 1.32 1.98 2.64 3 4 C2.01 5.485 2.01 5.485 1 7 C0.01 7 -0.98 7 -2 7 C-1.34 4.69 -0.68 2.38 0 0 Z " fill="#383838" transform="translate(22,64)"/>
<path d="M0 0 C0.33 0.99 0.66 1.98 1 3 C-3.455 3.495 -3.455 3.495 -8 4 C-2.7826087 0 -2.7826087 0 0 0 Z " fill="#DA9E27" transform="translate(48,53)"/>
<path d="M0 0 C1.32 0 2.64 0 4 0 C4 0.99 4 1.98 4 3 C2.35 3.66 0.7 4.32 -1 5 C-1 1 -1 1 0 0 Z " fill="#120F14" transform="translate(41,46)"/>
<path d="M0 0 C-0.9590625 0.433125 -0.9590625 0.433125 -1.9375 0.875 C-4.15206079 1.82823451 -4.15206079 1.82823451 -5 4 C-5.66 3.67 -6.32 3.34 -7 3 C-7 2.01 -7 1.02 -7 0 C-4.3333581 -1.33332095 -2.83319697 -0.67102033 0 0 Z " fill="#F4AC22" transform="translate(68,43)"/>
<path d="M0 0 C0.99 0.33 1.98 0.66 3 1 C2.34 2.65 1.68 4.3 1 6 C-0.65 5.67 -2.3 5.34 -4 5 C-2.68 4.34 -1.36 3.68 0 3 C0 2.01 0 1.02 0 0 Z " fill="#E7A62E" transform="translate(88,37)"/>
<path d="M0 0 C1.32 0.33 2.64 0.66 4 1 C4 1.99 4 2.98 4 4 C2.02 4 0.04 4 -2 4 C-1.34 2.68 -0.68 1.36 0 0 Z " fill="#1B1B1B" transform="translate(85,28)"/>
<path d="M0 0 C4.455 0.99 4.455 0.99 9 2 C4.82091936 4.08954032 4.19589427 4.16552619 0 3 C0 2.01 0 1.02 0 0 Z " fill="#030512" transform="translate(147,124)"/>
<path d="M0 0 C0.433125 0.474375 0.86625 0.94875 1.3125 1.4375 C3.02309613 3.23686957 3.02309613 3.23686957 6 4 C6 4.66 6 5.32 6 6 C5.34 6 4.68 6 4 6 C3.67 6.66 3.34 7.32 3 8 C1.02 4.535 1.02 4.535 -1 1 C-0.67 0.67 -0.34 0.34 0 0 Z " fill="#E29F2D" transform="translate(59,104)"/>
<path d="M0 0 C0.99 0.33 1.98 0.66 3 1 C2.67 2.32 2.34 3.64 2 5 C1.01 5 0.02 5 -1 5 C-1.33 4.01 -1.66 3.02 -2 2 C-1.34 1.34 -0.68 0.68 0 0 Z " fill="#121212" transform="translate(189,104)"/>
<path d="M0 0 C-1.36983503 3.16115776 -1.9890638 3.9927092 -5 6 C-5.33 4.68 -5.66 3.36 -6 2 C-3 0 -3 0 0 0 Z " fill="#383838" transform="translate(197,102)"/>
<path d="M0 0 C0.99 0.33 1.98 0.66 3 1 C2.34 2.32 1.68 3.64 1 5 C-0.32 4.67 -1.64 4.34 -3 4 C-2.67 3.01 -2.34 2.02 -2 1 C-1.34 0.67 -0.68 0.34 0 0 Z " fill="#0A030C" transform="translate(48,96)"/>
<path d="M0 0 C0.66 0.33 1.32 0.66 2 1 C2 3.31 2 5.62 2 8 C1.01 8 0.02 8 -1 8 C-0.67 5.36 -0.34 2.72 0 0 Z " fill="#F4AD17" transform="translate(165,88)"/>
<path d="M0 0 C0.33 0.66 0.66 1.32 1 2 C1.66 2 2.32 2 3 2 C3 3.65 3 5.3 3 7 C2.01 6.67 1.02 6.34 0 6 C-0.38218767 4.34385343 -0.71395102 2.67542976 -1 1 C-0.67 0.67 -0.34 0.34 0 0 Z " fill="#2A2B29" transform="translate(22,89)"/>
<path d="M0 0 C0.99 0 1.98 0 3 0 C3 0.66 3 1.32 3 2 C3.66 2.66 4.32 3.32 5 4 C3.02 4.33 1.04 4.66 -1 5 C-1 1 -1 1 0 0 Z " fill="#F0A72E" transform="translate(58,59)"/>
<path d="M0 0 C-0.25 1.875 -0.25 1.875 -1 4 C-3.0625 5.25 -3.0625 5.25 -5 6 C-5 4.68 -5 3.36 -5 2 C-2 0 -2 0 0 0 Z " fill="#FBD185" transform="translate(109,46)"/>
<path d="M0 0 C0.33 1.32 0.66 2.64 1 4 C0.01 4.33 -0.98 4.66 -2 5 C-2.33 5.99 -2.66 6.98 -3 8 C-4 5 -4 5 -3 2 C-2.34 2.33 -1.68 2.66 -1 3 C-0.67 2.01 -0.34 1.02 0 0 Z " fill="#0A0403" transform="translate(157,44)"/>
<path d="M0 0 C0.99 0.33 1.98 0.66 3 1 C2.34 2.98 1.68 4.96 1 7 C0.34 6.34 -0.32 5.68 -1 5 C-0.625 2.375 -0.625 2.375 0 0 Z " fill="#020201" transform="translate(55,149)"/>
<path d="M0 0 C0.66 0 1.32 0 2 0 C1.25 6.75 1.25 6.75 -1 9 C-0.67 6.03 -0.34 3.06 0 0 Z " fill="#F5AA3A" transform="translate(108,112)"/>
<path d="M0 0 C0.33 0 0.66 0 1 0 C1 1.65 1 3.3 1 5 C1.99 5 2.98 5 4 5 C4 5.99 4 6.98 4 8 C2.68 8 1.36 8 0 8 C0 5.36 0 2.72 0 0 Z " fill="#372718" transform="translate(123,107)"/>
<path d="M0 0 C3 3.75 3 3.75 3 6 C1.68 6 0.36 6 -1 6 C-1.33 5.01 -1.66 4.02 -2 3 C-1.34 2.01 -0.68 1.02 0 0 Z " fill="#231C18" transform="translate(81,110)"/>
<path d="M0 0 C2.25 -0.3125 2.25 -0.3125 5 0 C7.3125 2.5 7.3125 2.5 9 5 C5.22454612 3.90931332 2.52956528 3.0916909 0 0 Z " fill="#D5A735" transform="translate(39,101)"/>
<path d="M0 0 C-1.36983503 3.16115776 -1.9890638 3.9927092 -5 6 C-5.33 5.01 -5.66 4.02 -6 3 C-5.34 3 -4.68 3 -4 3 C-4 2.34 -4 1.68 -4 1 C-2 0 -2 0 0 0 Z " fill="#080202" transform="translate(183,96)"/>
<path d="M0 0 C0.33 0.99 0.66 1.98 1 3 C1.66 3 2.32 3 3 3 C3.33 2.01 3.66 1.02 4 0 C4.66 0 5.32 0 6 0 C5.67 1.32 5.34 2.64 5 4 C3.68 4.33 2.36 4.66 1 5 C0.34 3.68 -0.32 2.36 -1 1 C-0.67 0.67 -0.34 0.34 0 0 Z " fill="#F2AD31" transform="translate(65,81)"/>
<path d="M0 0 C2 1 2 1 2 1 Z " fill="#E5E5E5" transform="translate(50,179)"/>
<path d="" fill="#E4E4E4" transform="translate(0,0)"/>
<path d="" fill="#E3E3E3" transform="translate(0,0)"/>
<path d="" fill="#E1E1E1" transform="translate(0,0)"/>
<path d="" fill="#DBDBDB" transform="translate(0,0)"/>
<path d="" fill="#D9D9D9" transform="translate(0,0)"/>
<path d="" fill="#E3E3E3" transform="translate(0,0)"/>
<path d="" fill="#DCDCDC" transform="translate(0,0)"/>
<path d="" fill="#E3E3E3" transform="translate(0,0)"/>
<path d="" fill="#E3E3E3" transform="translate(0,0)"/>
<path d="" fill="#E5E5E5" transform="translate(0,0)"/>
<path d="" fill="#DEDEDE" transform="translate(0,0)"/>
<path d="" fill="#E5E5E5" transform="translate(0,0)"/>
<path d="" fill="#DFDFDF" transform="translate(0,0)"/>
<path d="" fill="#D0D0D0" transform="translate(0,0)"/>
<path d="" fill="#DFDFDF" transform="translate(0,0)"/>
<path d="" fill="#E3E3E3" transform="translate(0,0)"/>
<path d="" fill="#E6E6E6" transform="translate(0,0)"/>
<path d="" fill="#E0E0E0" transform="translate(0,0)"/>
<path d="" fill="#E0E0E0" transform="translate(0,0)"/>
<path d="" fill="#E3E3E3" transform="translate(0,0)"/>
<path d="" fill="#DADADA" transform="translate(0,0)"/>
<path d="" fill="#D9D9D9" transform="translate(0,0)"/>
<path d="" fill="#E4E4E4" transform="translate(0,0)"/>
<path d="" fill="#E4E4E4" transform="translate(0,0)"/>
</svg>
